<?xml version="1.0" standalone="no"?>
<!DOCTYPE svg PUBLIC "-//W3C//DTD SVG 1.1//EN" "http://www.w3.org/Graphics/SVG/1.1/DTD/svg11.dtd" >
<svg>
<metadata>
Created by FontForge 20110222 at Fri Jul  8 01:19:50 2011
 By Application Server
Generated from MetaFont bitmap by mftrace 1.2.4, http://www.xs4all.nl/~hanwen/mftrace/ 
</metadata>
<defs>
<font id="ocra10" horiz-adv-x="685" >
  <font-face 
    font-family="ocra10"
    font-weight="400"
    font-stretch="normal"
    units-per-em="1000"
    panose-1="2 0 5 9 0 0 0 0 0 0"
    ascent="800"
    descent="-200"
    x-height="538"
    cap-height="741"
    bbox="33 -202 603 1048"
    underline-thickness="50"
    underline-position="-75"
    unicode-range="U+0020-FB04"
  />
<missing-glyph 
d="M33 0v666h333v-666h-333zM66 33h267v600h-267v-600z" />
    <glyph glyph-name="ff" unicode="ff" 
d="M531 740q19 0 33.5 -13t14.5 -33q0 -17 -20 -49l-31 -54q-17 -27 -17 -31q0 -3 6 -15l17 -33q10 -22 20 -41t17.5 -45.5t7.5 -51.5q0 -57 -46 -147l-59 -119q-5 -14 -16 -32.5t-23.5 -35t-36.5 -28.5t-54 -12q-38 0 -70 20.5t-47 56.5q-12 -27 -29.5 -52t-42.5 -25
q-19 0 -34 12.5t-15 33.5q0 13 10 32t41 71q17 27 17 31q0 3 -6 15l-17 33q-10 22 -20 41t-17.5 45.5t-7.5 51.5q0 57 46 147l59 119q5 14 16 32.5t23.5 35t36.5 28.5t54 12q38 0 70 -20.5t47 -56.5q12 27 29.5 52t43.5 25zM233 279q7 7 13 17t12.5 23l9.5 19l114 194
q4 8 9 15.5t6.5 9t1.5 5.5v5l-4 7q-4 7 -6 12q-2 11 -15.5 34.5t-30.5 23.5t-31 -26l-32 -64q-50 -97 -64 -127.5t-14 -56.5q0 -39 31 -91zM452 461q-7 -7 -13 -17t-12.5 -23l-9.5 -19l-114 -194q-17 -26 -17 -32q0 -5 10 -22q2 -11 15.5 -34.5t30.5 -23.5t31 26l32 64
q50 97 64 127.5t14 56.5q0 39 -31 91z" />
    <glyph glyph-name="fi" unicode="fi" 
d="M105 685q0 47 42 55q27 0 41.5 -13t14.5 -55l-1 -11v-43q0 -33 -18.5 -45.5t-39.5 -8.5q-39 8 -39 68q0 5 0.5 15t0.5 14t-0.5 12t-0.5 12zM482 685q0 47 42 55q27 0 41.5 -13t14.5 -55v-11q-1 -11 -1 -43q0 -33 -18.5 -45.5t-39.5 -8.5q-39 8 -39 68q0 5 0.5 15t0.5 14
t-0.5 12t-0.5 12zM193 469q3 5 15.5 24t18 26.5t19 22t25.5 21t30.5 12t40.5 5.5q43 0 75 -20.5t47.5 -48t36.5 -55.5q16 -23 33 -46.5t23 -32.5t12.5 -21.5t8 -23t1.5 -28.5v-34q0 -20 -5 -35.5t-9.5 -22t-21.5 -29.5l-50 -72q-15 -24 -30.5 -44.5t-30.5 -35.5t-37.5 -23.5
t-51.5 -8.5q-22 0 -41 5.5t-31.5 12t-25.5 20.5t-19 23l-18 27t-17 26l-49 69q-13 20 -21 31t-11.5 29.5t-3.5 57.5q0 36 8 53.5t28 43.5zM343 484q-17 0 -22.5 -4t-15.5 -18l-84 -120q-9 -10 -13.5 -16.5t-6 -13.5t-1.5 -24q0 -23 8.5 -36.5t26.5 -34.5l55 -79
q10 -15 15.5 -24.5t13.5 -14t23 -4.5q17 0 22.5 4t15.5 18q33 49 60 85.5t33 45.5t9 17t3 25q0 24 -8.5 37.5t-26.5 34.5l-55 79q-10 15 -15.5 24.5t-13.5 14t-23 4.5z" />
    <glyph glyph-name="fl" unicode="fl" 
d="M199 685q0 47 42 55q27 0 41.5 -13t14.5 -55l-1 -11v-43q0 -34 -18.5 -46t-39.5 -8q-39 8 -39 68q0 5 0.5 15t0.5 14t-0.5 12t-0.5 12zM388 685q0 47 42 55q27 0 41.5 -13t14.5 -55v-11q-1 -11 -1 -43q0 -34 -18.5 -46t-39.5 -8q-39 8 -39 68q0 5 0.5 15t0.5 14t-0.5 12
t-0.5 12zM531 579q17 0 33 -12.5t16 -42.5q0 -4 -0.5 -12.5t-0.5 -11.5v-284q0 -9 0.5 -27.5t0.5 -27.5q0 -38 -7 -60q-12 -38 -42 -64.5t-69 -34.5q-19 -4 -45 -4q-11 0 -32 1t-32 1t-34.5 -0.5t-35.5 -0.5q-100 0 -141 50q-23 25 -29.5 52t-6.5 74v329q0 21 1.5 33
t11 25.5t28.5 16.5q27 0 41.5 -14t14.5 -55q0 -7 -0.5 -21t-0.5 -20v-276q-2 -16 -0.5 -33.5t4.5 -32t18 -24t40 -9.5q7 0 21 1t20 1q14 0 44 -0.5t45 -0.5h22t19 1t16.5 3.5t14 8t11.5 14.5q8 15 8 39q0 8 -1 22.5t-1 20.5v288q0 5 -0.5 15t-0.5 16q0 32 16 44t33 12z" />
    <glyph glyph-name="ffi" unicode="ffi" 
d="M106 48q0 16 12 32t40 16h19q1 0 9 -0.5t12 -0.5q11 0 14.5 4t5.5 19l14 48q40 130 46 156h-95q-3 0 -11 -0.5t-11 -0.5q-31 0 -42.5 15.5t-11.5 33.5q0 33 29 45q8 3 44 3h114q12 0 14 4t5 20q9 28 14 49l33 112q6 14 10 31.5t16 36t27 34t43.5 25.5t65.5 10
q30 0 43.5 -14t13.5 -32q0 -10 -1 -14q-4 -10 -7 -15q-13 -18 -50 -20.5t-50 -18.5q-6 -8 -10 -18.5t-8 -27.5t-5 -21l-27 -91q-13 -42 -14 -50h94q40 0 51 -5q26 -12 26 -42q0 -29 -22 -42q-12 -7 -58 -7h-120l-65 -226h198q32 0 44 -6q24 -14 24 -42q0 -32 -28 -44
q-10 -4 -41 -4h-305q-5 0 -15.5 -0.5t-16.5 -0.5q-67 0 -67 49z" />
    <glyph glyph-name="ffl" unicode="ffl" 
d="M162 241q-32 0 -44 16t-12 33q0 25 20 39q12 9 55 9h114q0 21 -15.5 48t-28.5 44l-100 171q-27 45 -36.5 62.5t-9.5 29.5q0 20 15 33t35 13q26 0 44.5 -26.5t37.5 -67.5q97 -166 106 -180q0 1 25 44l97 166q9 16 16 30.5t19.5 24t29.5 9.5q19 0 34 -13.5t15 -33.5
q0 -13 -14 -37l-132 -226q-9 -15 -18.5 -31t-12.5 -22t-7 -12t-4 -8t-0.5 -4t0 -6t0.5 -8h112q43 0 54 -7q22 -13 22 -41q0 -19 -12.5 -34t-44.5 -15q-5 0 -13.5 0.5t-12.5 0.5h-105v-133q0 -7 0.5 -22t0.5 -23q0 -15 -1 -22q-2 -17 -15 -29.5t-32 -12.5q-50 0 -50 63
q0 7 0.5 22t0.5 23v134h-106q-5 0 -14 -0.5t-13 -0.5z" />
    <glyph glyph-name=".notdef" 
d="M33 0v666h333v-666h-333zM66 33h267v600h-267v-600z" />
    <glyph glyph-name=".null" horiz-adv-x="0" 
 />
    <glyph glyph-name="nonmarkingreturn" 
 />
    <glyph glyph-name="space" unicode=" " 
 />
    <glyph glyph-name="exclam" unicode="!" 
d="M271 686q0 54 51 54h20h19.5t18 -2.5t19 -8t11 -16.5t5.5 -28q0 1 -9 -118.5t-10 -155.5q0 1 -3 -41q-2 -17 -2 -36.5t-12 -35.5t-36 -16q-35 0 -46 31l-23 328q0 7 -1.5 22t-1.5 23zM414 73q0 -35 -10 -54t-41 -19h-20h-14t-13.5 1t-12.5 2.5t-12 5.5t-10 10
q-10 12 -10 37v7q0 35 9.5 54t41.5 19h20h14t13.5 -0.5t12.5 -2.5t11.5 -6t10.5 -10q10 -12 10 -37v-7z" />
    <glyph glyph-name="quotedbl" unicode="&#x22;" 
d="M580 696q0 -51 -10 -52q0 4 -23 -123l-12 -59q0 -6 -3 -16t-6.5 -19.5t-15 -16.5t-27.5 -7q-21 0 -33 13t-14 28t-5 26l-23 117q-11 55 -12 56q-2 1 -28 1q-8 0 -25 1t-26 1q-16 0 -22.5 -2t-7.5 -3.5t-2 -10.5q-1 -7 -4 -21.5t-4 -21.5l-23 -118q-3 -10 -5 -25t-14 -28
t-33 -13q-16 0 -30 9.5t-18 26.5l-24 123q-25 122 -25 143q0 5 0.5 17t0.5 18h473q0 -7 0.5 -22t0.5 -22z" />
    <glyph glyph-name="numbersign" unicode="#" 
d="M106 531q0 11 3.5 20.5t18 19t38.5 9.5q6 0 17.5 -0.5t16.5 -0.5v87q0 37 5 48q14 26 43 26q31 0 43 -27q5 -10 5 -47v-87h93v87q0 37 5 48q14 26 43 26q31 0 43 -27q5 -10 5 -47v-87q5 0 15.5 0.5t16.5 0.5q62 0 62 -48q0 -20 -13.5 -35t-47.5 -15q-6 0 -17 0.5t-16 0.5
v-105q5 0 16 0.5t17 0.5q35 0 48 -15.5t13 -34.5q0 -48 -62 -48q-6 0 -16.5 0.5t-15.5 0.5v-88q0 -37 -5 -47q-12 -26 -42 -26t-44 26q-5 10 -5 46v89h-93v-88q0 -37 -5 -47q-12 -26 -42 -26t-44 26q-5 10 -5 47v88q-5 0 -16.5 -0.5t-17.5 -0.5q-35 0 -47.5 15.5t-12.5 33.5
q0 49 61 49q6 0 17 -0.5t16 -0.5v105q-5 0 -16 -0.5t-17 -0.5q-61 0 -61 49zM389 483h-93v-105h93v105z" />
    <glyph glyph-name="dollar" unicode="$" 
d="M163 160q-33 0 -45 15.5t-12 32.5q0 33 30 46q7 3 39 3h308v65h-313q-31 0 -43 8q-21 15 -21 49v131q0 46 20 60q12 9 55 9h114v87q0 37 5 48q14 26 43 26q31 0 43 -27q5 -10 5 -47v-87h106q4 0 12 0.5t12 0.5q33 0 45.5 -15.5t12.5 -33.5q0 -32 -28 -44q-10 -4 -41 -4
h-308v-65h314q30 0 41 -7q22 -14 22 -47v-132q0 -17 -0.5 -24.5t-5 -19t-14.5 -18.5q-12 -9 -54 -9h-114v-87q0 -37 -5 -47q-12 -27 -43 -27q-29 0 -43 26q-5 11 -5 48v87h-107q-4 0 -12.5 -0.5t-12.5 -0.5z" />
    <glyph glyph-name="percent" unicode="%" 
d="M105 671q0 34 12 52t43 18l26 -1q6 0 21 1t23 1q40 0 53 -16t13 -44q0 -25 0.5 -34t0.5 -15q0 -34 -12.5 -52t-44.5 -18q-4 0 -12 0.5t-11 0.5q-6 0 -21 -1t-23 -1q-41 0 -54 16t-13 44q0 25 -0.5 33.5t-0.5 15.5zM151 81q-20 0 -32.5 14t-12.5 33t18 43.5t28 33.5
l324 414q4 6 10 13t12 13.5t15.5 10.5t20.5 4q20 0 32.5 -14.5t12.5 -34.5q0 -16 -12 -33t-31 -38l-326 -418q-6 -8 -12.5 -15.5t-12.5 -13t-14.5 -9t-19.5 -3.5zM388 108q0 34 12 52t43 18l26 -1q6 0 21 1t23 1q40 0 53 -16t13 -44q0 -25 0.5 -34t0.5 -15q0 -35 -12.5 -53
t-44.5 -18q-4 0 -12 0.5t-11 0.5q-6 0 -21 -1t-23 -1q-39 0 -53 16t-14 45q0 25 -0.5 33.5t-0.5 15.5z" />
    <glyph glyph-name="ampersand" unicode="&#x26;" 
d="M210 321q-4 3 -50 52t-50 57q-5 12 -5 34q0 7 0.5 20.5t0.5 19.5q0 35 7 56q13 41 49 71t100 30q7 0 21 -0.5t20 -0.5q47 0 77.5 -6.5t57.5 -30.5q17 -15 27.5 -33.5t14.5 -43t4.5 -39t0.5 -45.5q0 -30 -13.5 -45.5t-38.5 -32.5l-84 -72q6 -4 33.5 -34.5t42.5 -45.5
q2 -2 7 -8.5t9.5 -11.5t8.5 -6q5 -2 17.5 11t30 26.5t33.5 13.5q20 0 34 -14.5t14 -34.5q0 -23 -29 -46q-25 -22 -33 -28v-1q5 -4 22 -23q16 -15 28.5 -30.5t12.5 -31.5q0 -20 -14.5 -34t-34.5 -14q-12 0 -23 6t-16.5 13t-12.5 14q-27 27 -35 38h-1q-6 -8 -14 -15
t-20.5 -16.5t-16.5 -12.5q-7 -7 -13 -12t-12 -8.5t-15.5 -5.5t-23.5 -2q-1 0 -15.5 0.5t-48.5 0.5q-37 0 -59 7q-34 10 -59 36.5t-35 60.5q-5 19 -5 57q0 5 -0.5 17t-0.5 17q0 20 6 33t9.5 16t22.5 19q7 6 20.5 18.5t24.5 22t22 16.5v1zM389 505q0 30 -14 45t-52 15
q-8 0 -21.5 -0.5t-19.5 -0.5h-25q-28 0 -41.5 -14t-13.5 -54q0 -2 -0.5 -7.5t-0.5 -8.5q0 -9 2.5 -12.5t16.5 -17.5q15 -15 31 -33t23 -25.5t10 -7.5t12 9q6 6 47.5 40.5t44.5 38.5q2 4 2 8q0 3 -0.5 7t-0.5 5v13zM202 147q0 -51 69 -51q21 0 28 -0.5t12 -0.5q12 0 17 3.5
t13 10.5q6 5 18.5 16t18.5 16v1l-102 108q-11 -8 -41.5 -34t-31.5 -29q-2 -3 -2 -11q0 -4 0.5 -9t0.5 -20z" />
    <glyph glyph-name="parenleft" unicode="(" 
d="M485 47q0 -18 -13 -32.5t-34 -14.5q-25 0 -52 35l-83 106q-18 21 -29.5 41t-16.5 36t-8 32t-2 28.5t0 26.5v88q0 60 3 90t12 55t25.5 43t43.5 54l55 70q27 35 51 35q20 0 34 -14.5t14 -34.5q0 -16 -12.5 -33t-25.5 -31l-59 -76q-15 -18 -25 -30.5t-15.5 -31t-5.5 -47.5
q0 -8 0.5 -24t0.5 -23v-87q0 -47 5.5 -61.5t40.5 -58.5l73 -94q23 -29 23 -47z" />
    <glyph glyph-name="parenright" unicode=")" 
d="M201 692q0 21 14.5 35t32.5 14q22 0 51 -35l72 -93q11 -14 21 -25.5t18.5 -26.5t15 -32.5t10 -43.5t3.5 -58q0 -13 -0.5 -39.5t-0.5 -39.5q0 -8 0.5 -26t0.5 -26q0 -46 -10 -77t-27.5 -53t-42.5 -55l-60 -76q-9 -12 -14 -17.5t-15 -11.5t-21 -6q-21 0 -35 14.5t-14 34.5
q0 17 14 35.5t25 29.5l63 81q16 21 25 32.5t12 28.5t3 58v113q0 41 -3 57t-15 33.5t-35 44.5l-77 98q-11 16 -11 32z" />
    <glyph glyph-name="asterisk" unicode="*" 
d="M392 137q0 -32 -15.5 -44t-33.5 -12q-28 0 -41 22q-7 11 -7 54v109q-2 -2 -82 -70q-12 -10 -20 -17.5t-18.5 -12.5t-21.5 -5q-19 0 -33 14.5t-14 34.5q0 14 7.5 25.5t17.5 18.5t19 15l106 91q10 7 10 10t-10 10q-2 1 -45 38.5t-61 52.5q-9 8 -19 15t-17.5 18.5t-7.5 25.5
q0 20 14 34.5t33 14.5q11 0 21.5 -5t18.5 -12.5t20 -17.5q80 -68 82 -70v109q0 43 7 54q13 22 41 22q19 0 34 -13t15 -43q0 -4 -0.5 -12t-0.5 -12v-104l81 69q11 10 19.5 17.5t18.5 12.5t21 5q20 0 34 -14.5t14 -34.5q0 -19 -15.5 -35t-28.5 -24l-106 -91q-10 -7 -10 -10
t10 -10q2 -1 45 -38.5t61 -52.5q13 -8 28.5 -24t15.5 -35q0 -20 -14 -34.5t-34 -14.5q-11 0 -21 5t-18.5 12.5t-19.5 17.5l-81 69v-104q0 -4 0.5 -12t0.5 -12z" />
    <glyph glyph-name="plus" unicode="+" 
d="M162 321q-32 0 -44 16t-12 33q0 25 20 39q12 9 55 9h114v105q0 4 -0.5 12.5t-0.5 13.5q0 33 16 45t33 12q24 0 37 -17q6 -8 9 -18t2.5 -19t-0.5 -20v-114h112q43 0 54 -7q22 -13 22 -41q0 -19 -12.5 -34t-44.5 -15q-5 0 -13.5 0.5t-12.5 0.5h-105v-114q0 -11 0.5 -20
t-2.5 -19t-9 -18q-13 -17 -37 -17q-19 0 -34 12.5t-15 44.5q0 5 0.5 13.5t0.5 12.5v105h-106q-5 0 -14 -0.5t-13 -0.5z" />
    <glyph glyph-name="comma" unicode="," 
d="M486 62q0 -25 -10.5 -40.5t-20 -18.5t-19.5 -3q-13 0 -26 8q-9 6 -13.5 14t-6 16.5t-1.5 18.5v19v166h-103q-4 0 -14 -0.5t-15 -0.5q-23 0 -36.5 10t-17 20t-3.5 19q0 13 8 26q7 11 18 16t18.5 5.5t24.5 0.5h117q6 0 18 0.5t17 0.5q51 0 63 -37q1 -5 1 -32v-174
q0 -6 0.5 -17t0.5 -17z" />
    <glyph glyph-name="hyphen" unicode="-" 
d="M106 348q0 44 15 58t54 14q10 0 28.5 -1t27.5 -1h263q4 0 14 0.5t14 0.5q35 0 46 -17t11 -53q0 -17 -1.5 -27t-9 -21t-21.5 -16q-8 -3 -36 -3h-335q-32 0 -40 3q-30 13 -30 63z" />
    <glyph glyph-name="period" unicode="." 
d="M246 228q0 34 12 52t43 18q5 0 14 -0.5t13 -0.5q6 0 20.5 0.5t21.5 0.5q23 0 37.5 -5t20.5 -14t8 -18t2 -22q0 -25 0.5 -33.5t0.5 -15.5q0 -34 -12.5 -52t-44.5 -18q-4 0 -12 0.5t-11 0.5q-6 0 -21 -1t-23 -1q-41 0 -54.5 16.5t-13.5 43.5q0 25 -0.5 33.5t-0.5 15.5z" />
    <glyph glyph-name="slash" unicode="/" 
d="M530 740q20 0 34.5 -14.5t14.5 -34.5q0 -13 -14 -36l-360 -616q-9 -14 -13 -19.5t-14 -12.5t-23 -7q-20 0 -34.5 14.5t-14.5 34.5q0 12 19 45l354 604l4.5 9t7 10.5t10 10.5t13 8.5t16.5 3.5z" />
    <glyph glyph-name="zero" unicode="0" 
d="M106 651q4 39 32.5 64.5t69.5 25.5q6 0 16 -0.5t15 -0.5h196q6 0 18.5 0.5t18.5 0.5q63 0 92 -46q9 -14 12.5 -31.5t3 -33.5t-0.5 -34v-406q0 -11 1 -34.5t1 -35.5q0 -22 -3 -41q-6 -30 -28 -52t-51 -26q-9 -1 -54 -1h-198q-6 0 -18 -0.5t-18 -0.5l-18 1q-51 7 -74 48
q-13 23 -13 78v384q0 16 -1 47t-1 47q0 17 2 47zM483 644h-281v-548h281v548z" />
    <glyph glyph-name="one" unicode="1" 
d="M106 47q0 19 13.5 34.5t44.5 15.5q5 0 15 -0.5t14 -0.5h102v548h-107q-4 0 -12.5 -0.5t-12.5 -0.5q-33 0 -45 16.5t-12 33.5q0 19 14 34t49 15q8 0 22 -1t20 -1h180v-644h92v174q0 31 5 42q13 25 43 25q49 0 49 -61q0 -6 -0.5 -16.5t-0.5 -15.5v-161q1 -13 0 -28
t-4.5 -27.5t-18 -20.5t-38.5 -8q-4 0 -14 0.5t-14 0.5h-316q-47 0 -61 22q-7 11 -7 25z" />
    <glyph glyph-name="two" unicode="2" 
d="M172 643q-66 0 -66 48q0 18 12.5 33t30.5 16q9 1 27 1q10 0 28 -0.5t27 -0.5h233q39 0 54 -6q43 -17 57 -62q5 -16 5 -42q0 -8 -0.5 -22.5t-0.5 -20.5v-130q0 -30 -1 -44.5t-10 -35.5t-27 -35q-15 -11 -35 -16t-38 -4.5t-39 0.5h-227v-226h222q12 0 37 0.5t37 0.5l37 -1
q19 -1 31.5 -15.5t12.5 -32.5q0 -9 -5 -21q-8 -18 -23 -22.5t-41 -4.5h-404v271q-1 15 -0.5 32.5t2 32.5t9 30t19.5 26t26.5 17t28.5 7.5t30 2t31 -0.5h231v226h-276q-5 0 -17 -0.5t-18 -0.5z" />
    <glyph glyph-name="three" unicode="3" 
d="M424 417q21 0 34.5 7t18 21t5.5 22t1 25v152h-302h-21q-30 0 -42 16t-12 32q0 50 74 50q9 0 25.5 -1t23.5 -1h181q9 0 27.5 1t28.5 1q49 0 82 -25.5t33 -87.5q0 -9 -1 -26.5t-1 -25.5v-83v-22.5t-1 -20.5t-3 -19t-6 -19.5t-11 -21.5l-7 -9q-7 -8 -7 -12q0 -1 12.5 -19
t18.5 -41q4 -20 4 -76v-106q0 -66 -21 -92q-14 -18 -36.5 -26t-35.5 -9t-45 -1h-226q-6 0 -19.5 -0.5t-20.5 -0.5q-69 0 -69 49q0 17 12.5 32.5t40.5 15.5h19h305v152v20t-3 19t-8.5 19t-18 11.5t-29.5 5.5q-5 0 -13.5 -0.5t-12.5 -0.5h-130q-27 0 -32 1q-16 5 -26 18
t-10 29t10 29t26 18q5 1 32 1h130q4 0 12.5 -0.5t13.5 -0.5z" />
    <glyph glyph-name="four" unicode="4" 
d="M461 0q-50 0 -50 63q0 7 0.5 22t0.5 23v134h-282v428q0 55 30 67q9 3 17 3q33 0 46 -30q3 -8 3 -43v-329h186v252q0 26 1 31q4 17 17.5 28t30.5 11q17 -1 32.5 -13t15.5 -40q0 -3 -0.5 -10t-0.5 -11v-248q18 0 32.5 -13.5t14.5 -33.5q0 -19 -13 -33.5t-34 -15.5v-133
q0 -7 0.5 -22t0.5 -23q0 -15 -1 -22q-2 -17 -15 -29.5t-32 -12.5z" />
    <glyph glyph-name="five" unicode="5" 
d="M152 136q16 0 60 -21t72 -21q8 0 23 1t22 1h154v226h-283v418h267q6 0 21 1t23 1q68 0 68 -49q0 -17 -11 -31t-29 -17q-15 -3 -31 -3q-8 0 -25 1t-25 1h-162v-226h150q27 0 39 -0.5t31.5 -7t33.5 -19.5t21 -32t7.5 -31.5t0.5 -38.5v-140q0 -7 0.5 -20t0.5 -19
q0 -53 -28.5 -82.5t-84.5 -29.5q-9 0 -26 1t-25 1h-108q-29 1 -39.5 -0.5t-23.5 1.5t-21 5.5t-31 12.5q-7 3 -28 11t-30.5 13t-19 17t-9.5 29q0 19 13 33t33 14z" />
    <glyph glyph-name="six" unicode="6" 
d="M517 338q20 0 33 -4.5t18.5 -12.5t8.5 -18.5t2.5 -22.5t-0.5 -24v-178q1 -9 0.5 -19.5t-2 -19.5t-6.5 -17.5t-14 -14.5q-11 -7 -42 -7h-339q-29 0 -36 2q-35 11 -35 52q0 5 0.5 13t0.5 12v592q0 39 10 51q15 18 53 18q13 0 26 0.5t26.5 -5.5t20.5 -18q7 -11 7 -24
q0 -19 -13.5 -33.5t-33.5 -15.5v-306h315zM483 242h-281v-146h281v146z" />
    <glyph glyph-name="seven" unicode="7" 
d="M342 0q-18 0 -33 13t-15 47q0 6 0.5 17t0.5 16v157q0 4 -0.5 14t-0.5 14q0 16 5 28.5t9 17t19.5 17t21.5 17.5l119 102q13 11 14 13t1 15v156h-282q-1 -18 -15.5 -29t-32.5 -11q-19 0 -33 13.5t-14 35.5v21t1 19.5t3.5 17t8.5 14.5t15 11t47 4h398v-271q0 -28 -3 -36
q-4 -12 -19 -25t-25 -20l-128 -110q-11 -8 -12 -11t-1 -17v-165q0 -4 0.5 -13t0.5 -14q0 -33 -16.5 -45.5t-33.5 -12.5z" />
    <glyph glyph-name="eight" unicode="8" 
d="M105 311q0 59 32.5 83t62.5 24v209q0 6 -1 22t-1 24q0 43 16.5 55t49.5 12h149h14.5t15 -1t14 -3t12 -6.5t9.5 -11.5t6.5 -18t2.5 -25q0 -9 -1 -24.5t-1 -21.5v-211q32 0 63.5 -24.5t31.5 -79.5q0 -6 -0.5 -17.5t-0.5 -16.5v-119q0 -7 0.5 -23.5t0.5 -25.5
q0 -33 -10.5 -56.5t-26.5 -34.5t-29.5 -16t-26.5 -5q-27 -1 -81 -1l-162 1q-32 0 -45.5 1t-36 9.5t-36.5 26.5q-21 27 -21 77q0 6 0.5 18.5t0.5 18.5v126q0 5 -0.5 17t-0.5 17zM389 644h-93v-226h93v226zM483 322h-281v-226h281v226z" />
    <glyph glyph-name="nine" unicode="9" 
d="M106 662v18.5t1 16.5t3 14.5t6.5 12t11.5 9t17.5 5.5t25.5 2h338q29 0 36 -2q35 -10 35 -54q0 -4 -0.5 -12t-0.5 -11v-592q0 -39 -10 -51q-15 -18 -53 -18h-17q-42 0 -56 23q-7 11 -7 24q0 19 13.5 33.5t33.5 15.5v307h-314q-31 0 -43 9q-11 8 -16 20.5t-4.5 25t0.5 26.5
v178zM483 644h-281v-145h281v145z" />
    <glyph glyph-name="colon" unicode=":" 
d="M246 550q0 34 12 52t43 18q5 0 14 -0.5t13 -0.5q6 0 20.5 0.5t21.5 0.5q23 0 37.5 -5t20.5 -14t8 -18t2 -22q0 -25 0.5 -33.5t0.5 -15.5q0 -34 -12.5 -52t-44.5 -18q-4 0 -12 0.5t-11 0.5q-6 0 -21 -1t-23 -1q-41 0 -54.5 16.5t-13.5 43.5q0 25 -0.5 33.5t-0.5 15.5z
M246 228q0 34 12 52t43 18q5 0 14 -0.5t13 -0.5q6 0 20.5 0.5t21.5 0.5q23 0 37.5 -5t20.5 -14t8 -18t2 -22q0 -25 0.5 -33.5t0.5 -15.5q0 -34 -12.5 -52t-44.5 -18q-4 0 -12 0.5t-11 0.5q-6 0 -21 -1t-23 -1q-41 0 -54.5 16.5t-13.5 43.5q0 25 -0.5 33.5t-0.5 15.5z" />
    <glyph glyph-name="semicolon" unicode=";" 
d="M199 591q0 34 12 52t43 18q4 0 13 -0.5t14 -0.5q6 0 21 1t23 1q40 0 53 -16t13 -44q0 -25 0.5 -34t0.5 -15q0 -35 -12.5 -53t-44.5 -18q-4 0 -12 0.5t-11 0.5q-6 0 -21 -1t-23 -1q-40 0 -54 15.5t-14 45.5q0 25 -0.5 33.5t-0.5 15.5zM486 62q0 -25 -10.5 -40.5t-20 -18.5
t-19.5 -3q-13 0 -26 8q-9 6 -13.5 14t-6 16.5t-1.5 18.5v19v166h-103q-4 0 -14 -0.5t-15 -0.5q-23 0 -36.5 10t-17 20t-3.5 19q0 13 8 26q7 11 18 16t18.5 5.5t24.5 0.5h117q6 0 18 0.5t17 0.5q51 0 63 -37q1 -5 1 -32v-174q0 -6 0.5 -17t0.5 -17z" />
    <glyph glyph-name="less" unicode="&#x3c;" 
d="M579 128q0 -21 -13.5 -34t-31.5 -13q-17 0 -41 13t-37 23l-300 176q-23 12 -29.5 16.5t-13.5 17t-7 33.5v26q0 15 6.5 26t13 16t20.5 13l283 167q38 22 58 33.5t28 15t17 3.5q20 0 33.5 -15t13.5 -35q0 -14 -8 -25t-14 -14.5t-19 -10.5l-69 -41q-70 -40 -104 -61
l-103 -60q-43 -26 -47 -27v-2l93 -54l221 -129q12 -7 23 -13t19 -17.5t8 -27.5z" />
    <glyph glyph-name="equal" unicode="=" 
d="M106 490q0 19 13.5 34.5t47.5 15.5q7 0 20 -0.5t19 -0.5h260q8 0 24 0.5t23 0.5q16 0 24 -1q19 -2 30.5 -17t11.5 -32q0 -29 -26 -42q-11 -5 -41 -5h-339q-28 0 -36 3q-31 12 -31 44zM106 289q0 19 13.5 34.5t47.5 15.5q7 0 20 -0.5t19 -0.5h260q8 0 24 0.5t23 0.5
q16 0 24 -1q19 -2 30.5 -17t11.5 -32q0 -29 -26 -42q-11 -5 -41 -5h-339q-28 0 -36 3q-31 12 -31 44z" />
    <glyph glyph-name="greater" unicode="&#x3e;" 
d="M151 80q-19 0 -32 15t-13 33q0 17 9.5 29.5t20.5 17.5t19 10l285 167q22 15 30 17v2q-4 1 -47 27l-276 162q-13 7 -19 10.5t-14 14.5t-8 25q0 20 13 35t33 15q22 0 46 -18l341 -201q14 -8 20 -12t13 -15.5t7 -26.5v-26q0 -21 -6 -32.5t-13.5 -17.5t-30.5 -18l-299 -176
q-13 -10 -37 -23.5t-42 -13.5z" />
    <glyph glyph-name="question" unicode="?" 
d="M248 161q-49 0 -49 63q0 7 0.5 20.5t0.5 19.5q0 3 -0.5 9.5t-0.5 10.5q0 25 18 43q2 2 108.5 93t138.5 117q8 6 12.5 10t6 9t1.5 17q0 13 -3.5 17.5t-12.5 11.5l-32 27q-5 -7 -26 -23q-7 -5 -198 -170q-41 -34 -61 -34q-17 0 -31 14t-14 34q0 14 7.5 25t31 31.5
t67.5 57.5l152 129q6 8 29.5 27.5t41.5 19.5q22 0 49 -25l51 -43q4 -3 11.5 -9t13 -11.5t9.5 -10.5q10 -13 10 -46v-56q0 -29 -17 -46t-59 -49l-129 -111q-7 -6 -24 -19t-30 -23.5t-22 -21.5q-2 -2 -2 -26q0 -4 0.5 -12.5t0.5 -13.5q0 -33 -16 -44.5t-33 -11.5zM200 50
q0 21 15 34t33 13q21 0 34.5 -15.5t13.5 -35.5q0 -21 -15 -34t-33 -13q-21 0 -34.5 15.5t-13.5 35.5z" />
    <glyph glyph-name="at" unicode="@" 
d="M107 608q0 13 10.5 34t31 44t60 39.5t89.5 16.5q14 0 31.5 -1t68.5 -1q93 0 138 -56q44 -48 44 -132q0 -10 -0.5 -30t-0.5 -29v-301q0 -6 0.5 -18.5t0.5 -19.5q0 -77 -45 -115.5t-98 -38.5q-47 0 -83 27q-10 7 -11 7q-3 0 -13.5 -8.5t-33.5 -17.5q-26 -8 -48 -8
q-58 0 -98 39q-28 27 -36 60.5t-8 83.5q0 31 -1 55t-1 41q0 61 17.5 101.5t68.5 65.5q28 13 79 13q10 0 30 -0.5t29 -0.5q31 0 48 -11.5t17 -49.5q0 -8 -1 -21.5t-1 -19.5v-168q0 -5 -0.5 -16.5t-0.5 -17.5q0 -24 10 -38t19.5 -17t18.5 -3q16 0 29 12q16 15 16 56v370
q0 24 -0.5 33t-5 28t-16.5 30t-33 17q-12 3 -26 3q-5 0 -15.5 -0.5t-15.5 -0.5h-69q-9 1 -20.5 0t-22.5 -3t-24 -10t-25 -22q-2 -2 -8 -12t-10.5 -16t-14.5 -12t-23 -6q-19 0 -33 12.5t-14 32.5zM264 363q-23 0 -37 -5.5t-19 -20t-5.5 -20.5t-0.5 -26v-122q0 -43 10 -55
q14 -18 36 -18q29 0 41 24q6 11 6 58v184q-5 0 -15.5 0.5t-15.5 0.5z" />
    <glyph glyph-name="A" unicode="A" 
d="M154 0q-20 0 -33.5 13.5t-13.5 32.5q0 11 12 52.5t54 182t89 309.5q16 54 25.5 87.5t21 48t32.5 14.5q16 0 28 -8t17 -19t8.5 -23t4.5 -20q2 -7 91 -308t89 -311v-2q0 -20 -14 -34.5t-34 -14.5q-14 0 -22.5 4t-15.5 16.5t-10.5 22.5t-11 37t-13.5 46q-1 3 -2.5 10.5
t-3.5 13.5t-5 9q-1 2 -11 2h-187q-10 0 -12 -2q-3 -5 -9 -31l-21 -69l-2.5 -10t-3.5 -12.5t-6 -13t-9.5 -12t-13.5 -8.5t-18 -3zM343 521l-78 -264h155q-15 49 -50 172l-9.5 28.5t-11 34.5t-6.5 29z" />
    <glyph glyph-name="B" unicode="B" 
d="M579 529q0 -39 -9 -71t-23 -50.5t-21 -26t-12 -10.5v-2q9 -4 25 -24t28 -53q12 -31 12 -81q0 -118 -82 -177q-24 -17 -56.5 -25t-50.5 -8.5t-62 -0.5h-222v740h222q44 0 62 -0.5t50.5 -8.5t56.5 -25q82 -59 82 -177zM202 418h143q63 0 81 8q57 27 57 108q0 69 -46 96
q-13 8 -29 11.5t-30.5 3t-31.5 -0.5h-144v-226zM202 96h144q17 0 31.5 -0.5t30.5 3t29 11.5q46 27 46 96q0 81 -57 108q-18 8 -81 8h-143v-226z" />
    <glyph glyph-name="C" unicode="C" 
d="M520 97q34 0 46.5 -15t12.5 -33q0 -33 -29 -45q-10 -4 -39 -4h-62q-11 0 -34 -1t-35 -1q-67 0 -102 23t-60 75t-69 137q-43 81 -43 134q0 32 10.5 66t25.5 61.5t31 60.5l41 82q12 24 18.5 34t21.5 28t36.5 27.5t51.5 13.5h45h87q6 0 20 0.5t21 0.5q64 0 64 -49
q0 -21 -16 -36q-5 -5 -11 -7.5t-14 -3.5t-13 -1.5t-15 0t-13 0.5h-102q-4 0 -14 0.5t-15 0.5q-14 0 -23.5 -2.5t-16 -7.5t-11.5 -12.5t-9.5 -17.5t-10.5 -22l-58 -116q-11 -16 -23 -43.5t-12 -51.5q0 -33 34 -97l53 -106q11 -21 17.5 -37.5t21 -26.5t37.5 -10q5 0 15 0.5
t14 0.5h101q4 0 12 0.5t13 0.5z" />
    <glyph glyph-name="D" unicode="D" 
d="M106 48q0 19 13.5 34t46.5 15q6 0 17.5 -0.5t16.5 -0.5v548q-5 0 -16 -0.5t-17 -0.5q-61 0 -61 49q0 32 28 44q9 4 43 4h77q9 0 27 0.5t28 0.5q71 0 103.5 -26t67.5 -96l55 -110q44 -84 44 -138q0 -48 -29.5 -113.5t-47.5 -92.5q-12 -30 -34 -72t-48 -62t-54 -25.5
t-71 -5.5h-86q-6 0 -19.5 -0.5t-20.5 -0.5q-63 0 -63 49zM296 96q4 0 12 -0.5t12 -0.5q19 0 30 4t21 19t17 31t24.5 53.5t37.5 73.5q33 62 33 95q0 32 -33 93q-41 85 -61 122.5t-23.5 42t-11.5 9.5q-11 6 -58 6v-548z" />
    <glyph glyph-name="E" unicode="E" 
d="M335 419q32 0 43.5 -16t11.5 -33q0 -24 -17 -37q-8 -6 -18 -9t-19 -2.5t-20 0.5h-114v-226h222q12 0 37 0.5t37 0.5l37 -1q19 -1 31.5 -15.5t12.5 -32.5q0 -9 -5 -21q-8 -18 -23 -22.5t-41 -4.5h-404v740h404q17 0 26 -1t20.5 -7t17.5 -19q5 -12 5 -21q0 -18 -12.5 -32.5
t-31.5 -15.5q-12 -1 -37 -1l-74 1h-222v-226h106q4 0 13 0.5t14 0.5z" />
    <glyph glyph-name="F" unicode="F" 
d="M106 740h404q17 0 26 -1t20.5 -7t17.5 -19q5 -12 5 -21q0 -18 -12.5 -32.5t-31.5 -15.5q-12 -1 -37 -1l-74 1h-222v-145h159q9 0 27 0.5t26 0.5q18 0 27 -1q19 -1 31.5 -15.5t12.5 -32.5t-12.5 -32.5t-31.5 -15.5q-9 -1 -27 -1q-8 0 -26 0.5t-27 0.5h-159v-240
q0 -13 0.5 -40t0.5 -40q0 -27 -1 -40q-1 -19 -16 -31t-33 -12q-17 0 -31 12q-16 15 -16 61v667z" />
    <glyph glyph-name="G" unicode="G" 
d="M342 290q0 49 62 49q6 0 16.5 -0.5t15.5 -0.5h143v-142q0 -38 -1 -56.5t-10.5 -46.5t-28.5 -49q-26 -28 -59 -36t-82 -8q-40 0 -64 -1t-40 -1q-30 0 -54 3.5t-50 13t-45.5 30.5t-30.5 52q-9 26 -9 65q0 8 0.5 25t0.5 26v146q0 81 11 108.5t64 95.5l88 114q20 23 32.5 34
t42 20.5t71.5 9.5q11 0 33 -0.5t32 -0.5q5 0 17 0.5t18 0.5q64 0 64 -48q0 -18 -12 -32.5t-31 -16.5q-24 -2 -38 -2q-12 0 -38 1t-38 1q-4 0 -12 0.5t-12 0.5q-25 0 -37 -10t-22 -26l-100 -128q-12 -17 -20.5 -27.5t-13 -26.5t-4.5 -42q0 -7 0.5 -23t0.5 -23v-137
q0 -6 -0.5 -19.5t-0.5 -20.5q0 -32 13.5 -49.5t48.5 -17.5q6 0 16.5 0.5t15.5 0.5h105q4 0 12 -0.5t12 -0.5q21 0 34.5 6.5t18 20t5.5 21t1 22.5v77h-74q-32 0 -43 6q-24 14 -24 42z" />
    <glyph glyph-name="H" unicode="H" 
d="M530 739q19 0 34.5 -13t15.5 -47q0 -6 -0.5 -17t-0.5 -16v-576q0 -45 -18 -60q-13 -10 -29 -10q-18 0 -32.5 12t-16.5 30q-2 20 -2 31t1 31.5t1 30.5v187h-281v-252q0 -3 0.5 -9t0.5 -9q0 -23 -14.5 -37t-35.5 -14q-48 0 -48 59q0 6 0.5 17t0.5 17v577q0 44 18 59
q13 10 29 10q18 0 32.5 -11.5t16.5 -29.5q2 -20 2 -31t-1 -31.5t-1 -30.5v-188h281v251q0 29 1 34q9 36 46 36z" />
    <glyph glyph-name="I" unicode="I" 
d="M521 97q23 0 37 -9.5t17.5 -19t3.5 -19.5q0 -33 -29 -45q-9 -4 -45 -4h-79q-30 0 -91 -1t-92 -1q-32 0 -92 2q-20 1 -32.5 15.5t-12.5 33.5q0 27 24 41q11 6 56 6h109v548h-109q-44 0 -55 6q-24 13 -24 41q0 18 12 33t31 16q10 1 31 1l62 -1h263q36 0 45 -4
q28 -12 28 -44q0 -19 -12.5 -34t-45.5 -15q-4 0 -12 0.5t-12 0.5h-106v-548h106q4 0 12 0.5t12 0.5z" />
    <glyph glyph-name="J" unicode="J" 
d="M436 684q0 29 14.5 42.5t32.5 13.5t34 -13t16 -42q0 -5 -0.5 -15t-0.5 -14v-481q0 -48 -3 -59q-3 -14 -9.5 -28.5t-22 -37t-46.5 -36.5t-73 -14h-36h-32q-108 0 -144 84q-13 29 -13 105v81q0 16 1 24.5t6.5 19.5t17.5 18q9 5 22 5q19 0 34.5 -13t15.5 -42q0 -4 -0.5 -12
t-0.5 -12v-93q0 -37 14 -53.5t51 -16.5q7 0 20.5 0.5t19.5 0.5h20q23 0 37 6t18.5 19.5t5.5 20t1 22.5v500v20z" />
    <glyph glyph-name="K" unicode="K" 
d="M579 49q0 -19 -14 -34t-34 -15q-18 0 -46 24l-202 172q-9 8 -25 22.5t-29.5 26t-26.5 20.5v-157q0 -6 1 -21t1 -22q0 -64 -49 -64q-50 0 -50 59q0 6 0.5 18t0.5 18v562q0 47 7 60q15 22 40 22q19 0 35 -13.5t16 -49.5q0 -8 -1 -24t-1 -23v-155q13 9 26.5 20.5t29.5 26
t25 22.5l202 172q28 24 46 24q20 0 34 -15t14 -34t-14 -33q-12 -13 -39 -35t-31 -25l-227 -194q-32 -29 -40 -33v-2q8 -4 40 -33q3 -3 95.5 -81.5t131.5 -112.5q38 -30 61 -51.5t23 -41.5z" />
    <glyph glyph-name="L" unicode="L" 
d="M153 740q18 0 33.5 -12.5t15.5 -41.5v-19v-571h222q12 0 37 0.5t37 0.5l37 -1q19 -1 31.5 -15.5t12.5 -32.5q0 -9 -5 -21q-8 -18 -23 -22.5t-41 -4.5h-404v656q0 4 -0.5 13.5t-0.5 14.5q0 18 5.5 30t14.5 17t15.5 7t12.5 2z" />
    <glyph glyph-name="M" unicode="M" 
d="M154 0q-19 0 -34 13t-15 44q0 5 0.5 14.5t0.5 13.5v655h86q2 0 9.5 0.5t11.5 0.5q11 0 15.5 -4t8.5 -12q3 -5 11 -16t11 -16l84 -119l107 154l10 11l36 1h83v-655q0 -5 0.5 -14t0.5 -13q0 -24 -10.5 -38t-20 -17t-18.5 -3q-15 0 -28.5 9.5t-17.5 24.5q-2 7 -2 36v537h-1
q-3 -9 -40 -58t-49 -71q-3 -5 -3 -31q0 -20 -14.5 -32t-30.5 -12q-19 0 -34.5 11.5t-15.5 40.5q0 19 -2 22q-13 23 -50 71.5t-40 58.5h-1v-537v-18q0 -23 -14 -37.5t-34 -14.5z" />
    <glyph glyph-name="N" unicode="N" 
d="M154 0q-19 0 -34 13t-15 46q0 5 0.5 14.5t0.5 13.5v653h93q2 0 10 1t12 1q8 0 11 -3l21 -45l172 -391q6 -15 17 -42t21 -49.5t20 -40.5v502q0 26 2 33q10 34 47 34q17 0 32.5 -12.5t15.5 -43.5q0 -5 -0.5 -15.5t-0.5 -15.5v-653h-93q-2 0 -10 -1t-12 -1q-12 0 -16 12
q-1 2 -1 3q-1 2 -90 204t-91 207l-40 92q-20 43 -23 53h-1v-502q0 -25 -2 -32q-4 -16 -17 -25.5t-29 -9.5z" />
    <glyph glyph-name="O" unicode="O" 
d="M339 740q24 0 45 -8t34.5 -18.5t27.5 -31t20.5 -33.5t18 -38t16.5 -34q26 -51 43 -84t25.5 -61t8.5 -58q0 -29 -10 -63.5t-17 -51t-31.5 -62.5t-27.5 -52q-11 -26 -25 -52t-28.5 -46.5t-38.5 -33.5t-56 -13q-45 0 -76 25t-47 61.5t-38 78.5l-35 69q-15 28 -22.5 44
t-13.5 41t-6 52t6.5 51.5t12 36.5t24.5 48l43 86q4 7 16 35t22 45t23 30q35 37 86 37zM311 616l-37 -74l-46 -92t-21 -47.5t-5 -34.5q0 -30 33 -92q26 -52 44 -88.5t23.5 -47.5l8.5 -17q13 -27 31 -27q19 0 32 28l37 74l46 92t21 47.5t5 34.5q0 30 -33 92q-26 52 -44 88.5
t-23.5 47.5l-8.5 17q-14 27 -31 27q-19 0 -32 -28z" />
    <glyph glyph-name="P" unicode="P" 
d="M153 0q-48 0 -48 61q0 6 0.5 16.5t0.5 15.5v647h264q13 3 42 1t58.5 -6.5t58 -28t42.5 -63.5q9 -26 9 -64q0 -8 -0.5 -22t-0.5 -21q0 -11 0.5 -34t0.5 -35q0 -56 -13 -96t-53 -66q-12 -7 -25 -12t-25.5 -7t-26 -3t-26.5 -1h-27h-182v-217q0 -23 -1 -28q-4 -17 -17.5 -27
t-30.5 -10zM483 574q0 17 -1 25t-6 21t-19 19t-37 6q-7 0 -19.5 -0.5t-18.5 -0.5h-180v-266h179q6 0 19.5 -1t20.5 -1q62 0 62 53v145z" />
    <glyph glyph-name="Q" unicode="Q" 
d="M579 48q0 -48 -64 -48h-99q-10 0 -12.5 1t-4 8.5t-5.5 14.5q-3 7 -8.5 20t-9.5 23.5t-6 20.5q-13 -9 -41 -35t-52 -39.5t-53 -13.5q-34 0 -64.5 18.5t-43.5 49.5q-11 27 -11 70q0 8 0.5 24t0.5 24v152q0 84 15 122.5t85 97.5l158 135q9 7 19 17.5t32.5 20t46.5 9.5
q20 0 38.5 -6t37.5 -20.5t30.5 -43.5t11.5 -69q0 -11 -0.5 -31t-0.5 -29v-139q0 -53 -3 -78.5t-22 -60t-60 -68.5l-33 -29q-12 -9 -13 -12q0 -3 9.5 -25t11.5 -33q7 0 22 0.5t23 0.5q15 0 22 -1q20 -2 31.5 -16t11.5 -32zM295 290q0 21 15 34t33 13q24 0 35.5 -17t30.5 -70
q7 3 29.5 23.5t29.5 30.5q16 26 16 70q0 7 -0.5 21.5t-0.5 20.5v198q0 29 -20 29q-8 0 -31 -18l-173 -148q-36 -30 -47 -49.5t-11 -59.5q0 -8 0.5 -22.5t0.5 -21.5v-197q0 -31 19 -31q10 0 28.5 15.5t51.5 44.5q13 9 23.5 18.5t4.5 17.5q-5 15 -19.5 48.5t-14.5 49.5z" />
    <glyph glyph-name="R" unicode="R" 
d="M106 740h266q27 0 50 0.5t49 -5.5t46 -20q62 -44 62 -124q0 -59 -10 -94t-44 -63q-12 -10 -26.5 -16.5t-28.5 -9t-29.5 -4t-30.5 -1.5h-31l181 -309q19 -34 19 -49q-1 -20 -15 -32t-33 -12q-15 0 -27 8t-16.5 18t-10.5 18l-193 330q-1 1 -7 12.5t-10 14.5q-2 1 -19 1h-46
v-240q0 -13 0.5 -40t0.5 -40q0 -27 -1 -40q-1 -19 -16 -31t-33 -12q-17 0 -31 12q-16 15 -16 61v667zM483 566q1 8 0 17t-1.5 18t-4.5 17t-10 14t-18 9.5t-28 3.5q-6 0 -18.5 -0.5t-17.5 -0.5h-183v-145h173q7 0 22 -1t23 -1q39 0 51 17.5t12 51.5z" />
    <glyph glyph-name="S" unicode="S" 
d="M105 631q0 39 30 74.5t91 35.5q7 0 21.5 -0.5t22.5 -0.5h130q21 0 38.5 0.5t38 -3t36.5 -12.5q38 -21 52 -53.5t14 -56.5q0 -27 -15.5 -39t-32.5 -12q-23 0 -38 18q-5 7 -7.5 25t-12.5 28t-36 10q-6 0 -17 -0.5t-16 -0.5h-184q-18 0 -18 -12q0 -4 3.5 -9.5t10.5 -12.5
l7 -8q2 -2 250 -321l62 -79l12 -15q12 -15 16 -22.5t10 -23.5t6 -32q0 -38 -28 -74t-91 -36q-7 0 -21 0.5t-21 0.5h-137h-36t-36.5 3.5t-34.5 11.5q-30 16 -49 46.5t-19 63.5q0 27 15 39.5t33 12.5q20 0 36 -16q7 -8 10 -26t12.5 -29t35.5 -11q6 0 17.5 0.5t15.5 0.5h182
q20 0 20 12q0 4 -3.5 9.5t-10.5 12.5l-7 8q-5 5 -114.5 146.5t-135.5 174.5l-62 79q-12 17 -22 29.5t-16.5 28.5t-6.5 35z" />
    <glyph glyph-name="T" unicode="T" 
d="M343 0q-18 0 -33.5 13t-15.5 42q0 3 0.5 10t0.5 10v569h-93q0 -47 -8 -59q-14 -21 -40 -21q-28 0 -42 24q-6 10 -6 51v101h473v-100q0 -4 0.5 -11t0.5 -11q0 -31 -16 -42.5t-33 -11.5q-18 0 -33.5 13t-15.5 42q0 4 0.5 12.5t0.5 12.5h-92v-569q0 -3 0.5 -10.5t0.5 -11.5
q0 -28 -16 -40.5t-33 -12.5z" />
    <glyph glyph-name="U" unicode="U" 
d="M531 740q19 0 34 -12.5t15 -45.5q0 -6 -0.5 -18t-0.5 -17v-475q0 -42 -3 -56q-9 -43 -40.5 -74.5t-74.5 -39.5q-15 -3 -47 -3q-10 0 -31 0.5t-32 0.5t-33 -0.5t-34 -0.5q-25 0 -42.5 2t-42.5 9t-45 25t-34 46q-8 17 -11.5 39t-3 41.5t0.5 41.5v456q0 18 0.5 26.5t4.5 24
t14.5 23t27.5 7.5q18 0 33.5 -12.5t15.5 -41.5v-18v-453q0 -6 -0.5 -21t-0.5 -23q0 -46 15 -61t47 -15q6 0 18 0.5t17 0.5h103q12 -2 26.5 -0.5t27.5 5.5t21.5 20.5t8.5 44.5q0 8 -1 23t-1 21v417q0 7 -0.5 23.5t-0.5 24.5q0 65 49 65z" />
    <glyph glyph-name="V" unicode="V" 
d="M343 180q2 11 7 24t12 28.5t10 23.5l58 148q13 38 25 68t17.5 41.5t8.5 21t3 18.5q0 3 -0.5 11t-0.5 12v90q0 39 6 50q13 23 40 23q17 0 31 -9.5t18 -26.5q1 -5 1 -32v-118q0 -34 -2 -39.5t-41 -102.5l-143 -366q-8 -22 -19 -33.5t-31 -11.5q-13 0 -22 4.5t-15.5 13.5
t-9.5 16t-7 19t-6 16l-133 341q-36 88 -41 102.5t-5 35.5q0 9 1 27t1 26v69q0 32 3 40q12 29 45 29q30 0 43 -25q5 -10 5 -44v-79q0 -5 -0.5 -16t-0.5 -17q0 -16 4 -27t15 -36l33 -84l65 -167q22 -58 25 -64z" />
    <glyph glyph-name="W" unicode="W" 
d="M405 0q-28 0 -36.5 4t-26.5 29q-14 -34 -70 -34q-8 0 -19 0.5t-44 0.5q-14 0 -22.5 2t-16.5 10t-10 11.5t-12 20.5l-37 62q-6 10 -6 26q0 3 0.5 9.5t0.5 10.5v521q0 43 19 57q11 10 29 10q33 0 44 -29q4 -10 4 -38v-508q0 -16 0.5 -19t3 -10.5t9.5 -16.5q1 -2 4 -7.5
t5.5 -9.5t5.5 -5q4 -2 15 -2q19 0 25 5.5t10 16.5q6 7 11.5 18t5.5 27q0 6 -1 16.5t-1 14.5v229q0 16 0.5 24t3.5 21t11.5 20t21.5 10q3 1 11 1q18 0 32 -12t16 -30q1 -10 1 -30q0 -10 -0.5 -30t-0.5 -29v-178q0 -4 -1 -14.5t-1 -15.5q0 -15 5.5 -25.5t11.5 -17.5
q4 -10 9.5 -15.5t24.5 -5.5q11 0 15 2q3 1 14.5 21t12.5 24t1 23v509q0 28 3 36q13 30 46 30q16 0 30 -11q17 -15 17 -57v-518q0 -3 0.5 -12t0.5 -13q0 -15 -8.5 -30t-33.5 -54q-17 -32 -29 -38.5t-41 -6.5h-63z" />
    <glyph glyph-name="X" unicode="X" 
d="M342 275q0 -1 -25 -44l-97 -166q-9 -16 -16 -30.5t-19.5 -24.5t-29.5 -10q-20 0 -34.5 13.5t-14.5 34.5q0 16 12 37t26 41l131 224q10 17 10 20t-11 21q1 -2 -40 69t-86 146l-28 49q-14 24 -14 37q0 21 14.5 34t34.5 13q18 0 31 -11.5t23.5 -32t27.5 -50.5
q97 -166 106 -180q0 1 25 44l97 166q9 16 16 30t19.5 24t29.5 10q20 0 34.5 -13.5t14.5 -35.5q0 -18 -38 -76q-18 -25 -130 -223l-5 -9q-6 -8 -6 -12t6 -12l5 -9q3 -6 71.5 -123t83.5 -143q13 -19 13 -33q0 -22 -14.5 -35.5t-34.5 -13.5q-17 0 -29.5 10t-19.5 24t-16 30
l-97 166q-25 43 -25 44h-1z" />
    <glyph glyph-name="Y" unicode="Y" 
d="M155 740q19 0 33.5 -13.5t14.5 -47.5q0 -5 -0.5 -13.5t-0.5 -12.5q0 -23 1 -25q4 -9 11.5 -18.5t17.5 -20.5t14 -17l97 -124q1 3 30 40l74 95q29 35 32.5 40.5t3.5 28.5q0 4 -0.5 13.5t-0.5 14.5q0 60 50 60q48 0 48 -66q0 -7 -0.5 -19.5t-0.5 -18.5q0 -3 0.5 -11.5
t0.5 -13.5q0 -13 -4.5 -20.5t-10.5 -14.5l-135 -173q-28 -31 -33.5 -39t-5.5 -33v-238q0 -4 0.5 -14t0.5 -15q0 -64 -50 -64q-48 0 -48 66q0 5 0.5 15t0.5 15v229q1 24 0.5 26t-15.5 20q2 -3 -130 167q-6 8 -19.5 23t-19.5 25t-6 20q0 4 0.5 11t0.5 9q0 7 -1 22.5t-1 24.5
q0 67 51 67z" />
    <glyph glyph-name="Z" unicode="Z" 
d="M447 644h-199q-10 0 -32.5 -0.5t-33.5 -0.5q-22 0 -33 1q-18 2 -30.5 16.5t-12.5 32.5q0 15 10 28q14 19 58 19h405q0 -6 1 -20t1 -21q0 -12 -3 -22t-6.5 -16t-11 -16t-11.5 -18l-311 -531h199q10 0 32.5 0.5t33.5 0.5q22 0 33 -1q18 -2 30.5 -16.5t12.5 -32.5
q0 -15 -10 -28q-14 -19 -58 -19h-405q0 7 -1 20.5t-1 20.5q0 12 3 22t6.5 16t11 16t11.5 18z" />
    <glyph glyph-name="bracketleft" unicode="[" 
d="M579 692q0 -19 -14 -34.5t-48 -15.5q-7 0 -21 1t-20 1h-133v-548h133q6 0 20 1t21 1q25 0 40.5 -10.5t18.5 -20.5t3 -20q0 -19 -14.5 -34t-51.5 -15q-8 0 -23 1t-21 1h-255q-6 0 -20 -1t-22 -1q-24 0 -39 6t-20 19t-6 20t-1 24v604q0 39 11 52q8 9 20.5 13t17.5 4h24h319
h27.5t26.5 -5.5t20 -17.5q7 -11 7 -25zM247 644h-45v-548h45v548z" />
    <glyph glyph-name="backslash" unicode="\" 
d="M106 692q0 19 14.5 34t33.5 15q28 0 49 -38l148 -251q148 -252 166 -284l40 -69q6 -8 14 -23t8 -28q0 -18 -13.5 -33t-34.5 -15q-13 0 -25 8t-16 13.5t-14.5 24.5t-10.5 20l-339 578q-20 32 -20 48z" />
    <glyph glyph-name="bracketright" unicode="]" 
d="M106 47q0 19 13.5 35t48.5 16q7 0 21 -1t20 -1h133v548h-133q-6 0 -20 -1t-21 -1q-25 0 -40.5 10.5t-18.5 20.5t-3 20q0 14 7 25q8 12 21 17.5t26 5t27 -0.5h319h17t16.5 -1t15 -5t13.5 -11q11 -13 11 -53v-602q0 -38 -11 -51q-18 -19 -55 -19q-8 0 -22 1t-20 1h-255
q-6 0 -21 -1t-23 -1q-37 0 -51.5 15t-14.5 34zM483 644h-45v-548h45v548z" />
    <glyph glyph-name="asciicircum" unicode="^" 
d="M154 121q-21 0 -34.5 13.5t-13.5 31.5q0 12 4.5 24t15 30t11.5 21l140 269q4 11 10.5 23t13.5 22.5t18 17t24 6.5q32 0 51 -43q2 -5 68.5 -132.5t73.5 -140.5l27 -52q16 -28 16 -43q0 -21 -15 -34.5t-35 -13.5q-14 0 -25 7.5t-16.5 18t-12.5 20.5l-51 76q-2 3 -33 51
t-49 71l-74 -111l-50 -76q-11 -22 -26.5 -39t-37.5 -17z" />
    <glyph glyph-name="underscore" unicode="_" 
d="M106 -49q0 19 13.5 34.5t47.5 15.5q7 0 20 -0.5t19 -0.5h260q8 0 24 0.5t23 0.5q16 0 24 -1q19 -2 30.5 -17t11.5 -32q0 -29 -26 -42q-11 -5 -41 -5h-339q-28 0 -36 3q-31 12 -31 44z" />
    <glyph glyph-name="a" unicode="a" 
d="M483 46q-13 -6 -31.5 -19t-35 -20.5t-36.5 -7.5q-6 0 -16 0.5t-14 0.5q-11 0 -35.5 -1t-37.5 -1q-63 0 -99 20q-72 42 -72 133q0 36 2 57t12.5 47t30.5 45q45 40 135 40q14 0 41.5 -1t40.5 -1q8 0 23.5 0.5t23.5 0.5q36 0 58 -7q0 73 -12 92t-56 19h-88q-6 0 -21.5 -0.5
t-23.5 -0.5q-41 0 -58 15t-13 43q8 40 68 40q6 0 16.5 -0.5t15.5 -0.5h86q64 0 100.5 -14.5t63.5 -61.5q18 -33 18 -118q0 -22 3.5 -97.5t3.5 -113.5q0 -30 1.5 -55t1.5 -29q0 -23 -13.5 -36.5t-32.5 -13.5t-34 12.5t-16 33.5zM260 243q-35 0 -46.5 -16.5t-11.5 -55.5v-16
q0 -22 5 -35t17.5 -18t18.5 -5.5t22 -0.5h73q4 0 12 -0.5t13 -0.5q11 0 21.5 5t67.5 40q10 4 19 9.5t9 14.5q0 7 -2 15q-1 16 -2 23t-5.5 19t-17 17t-33.5 5q-5 0 -14.5 -0.5t-13.5 -0.5h-99q-5 0 -16 0.5t-17 0.5z" />
    <glyph glyph-name="b" unicode="b" 
d="M334 0q-29 0 -54 10t-41.5 24.5t-36.5 29.5q0 -38 -18 -54q-11 -10 -28 -10q-19 0 -35 13t-16 46q0 7 0.5 19t0.5 18v565q0 46 8 58q14 21 39 21q19 0 35 -14t16 -50q0 -8 -1 -24t-1 -23v-154q1 1 23.5 20.5t47 31.5t52.5 12q9 0 27.5 0.5t27.5 0.5q37 0 63 -7.5
t35.5 -14.5t33.5 -28q40 -35 54 -64t14 -83q0 -11 -0.5 -33t-0.5 -32v-80q0 -57 -12 -86.5t-56 -63.5q-30 -26 -55 -37t-65 -11h-57zM344 444q-19 0 -30 -3.5t-21 -13t-28 -25.5q-4 -3 -18.5 -14t-24 -20t-14.5 -18q-6 -11 -6 -43v-71q0 -33 4 -42t10.5 -16t19.5 -17t15 -12
q21 -23 41.5 -38t45.5 -15h40l12 -1q18 0 27.5 3.5t26.5 18.5q7 5 18 14t15 17q6 12 6 43v148v20.5t-1 15t-4 12.5t-8.5 12t-15.5 14q-21 20 -30 25t-26 5q-32 0 -43 1h-11z" />
    <glyph glyph-name="c" unicode="c" 
d="M519 97q60 0 60 -50q0 -29 -26 -42q-10 -5 -46 -5h-80q-11 0 -35 -1t-36 -1q-32 0 -53.5 4.5t-38 14t-34 24t-40.5 34.5q-53 45 -68.5 73t-15.5 90q0 36 -0.5 48t-0.5 22q0 56 16 83.5t63 67.5q16 13 29.5 25t28 22t28.5 17.5t30.5 12t34.5 4.5q5 0 16 -0.5t17 -0.5h95
q7 0 23.5 1t24.5 1q68 0 68 -50q0 -18 -13.5 -33.5t-46.5 -15.5q-6 0 -16.5 0.5t-15.5 0.5h-108q-5 0 -17.5 0.5t-18.5 0.5q-28 0 -44 -12t-48 -43q-11 -7 -26.5 -21t-19.5 -27q-3 -7 -3 -39v-69q0 -32 6 -43q5 -9 15 -18.5t24 -19.5t19 -15q16 -17 34.5 -29.5t45.5 -12.5
q6 0 17 0.5t16 0.5h107q5 0 16 0.5t17 0.5z" />
    <glyph glyph-name="d" unicode="d" 
d="M360 539q28 0 52.5 -12t47 -31.5t23.5 -20.5v153q0 7 -1 23t-1 24q0 65 51 65q18 0 33 -13t15 -43q0 -4 -0.5 -12.5t-0.5 -12.5v-564q0 -6 0.5 -18t0.5 -18q0 -24 -10.5 -38.5t-20 -17.5t-19.5 -3q-17 0 -28 10q-19 15 -19 54q-16 -13 -29 -23t-24.5 -18t-23 -13
t-25 -7.5t-30.5 -2.5h-57q-40 0 -65 11t-55 37q-45 36 -56.5 65.5t-11.5 84.5v80q0 10 -0.5 32t-0.5 33q0 54 14 83t54 64q24 21 33.5 28t35.5 14.5t63 7.5q9 0 27.5 -0.5t27.5 -0.5zM296 444q-19 0 -29 -3.5t-27 -19.5q-3 -2 -11 -9t-13.5 -12.5t-8.5 -11.5q-5 -11 -5 -41
v-147v-21t1 -15.5t4 -13t9 -12.5t16 -14q15 -14 26 -21t29 -7h44l11 -1q14 0 22 1.5t15.5 6t16 12.5t23.5 21q5 5 19 15t24 19.5t15 18.5q6 11 6 43v71q0 33 -4 42t-10.5 16t-19.5 17t-15 12q-24 25 -43 39t-41 14q-29 0 -42 1h-12z" />
    <glyph glyph-name="e" unicode="e" 
d="M579 52q0 -24 -12.5 -36t-24.5 -14t-33 -2h-188q-63 0 -87 8t-71 49q-35 29 -46 57.5t-11 87.5v86q0 9 -0.5 27.5t-0.5 28.5q0 55 14.5 84t50.5 60q32 28 58.5 40t68.5 12q7 0 21 -0.5t20 -0.5q8 0 24 0.5t24 0.5q40 0 64 -9t64 -43q25 -22 36.5 -36t20.5 -42t9 -71
q0 -13 -0.5 -31.5t-0.5 -42.5q0 -44 -24 -58q-11 -6 -52 -6h-301v-22q0 -17 4 -26.5t13 -16.5t23 -19q11 -10 15.5 -13t15 -6t26.5 -3q7 0 20 0.5t19 0.5h137q4 0 15 0.5t17 0.5q71 0 72 -45zM483 297v55q0 20 -2.5 29.5t-10.5 17t-22 19.5q-5 5 -11 9.5t-11.5 8.5t-15.5 6
t-22 2q-6 0 -16.5 -0.5t-15.5 -0.5q-8 0 -26.5 1t-27.5 1q-25 0 -36.5 -5t-35.5 -27q-8 -7 -13.5 -11.5t-8.5 -10t-4.5 -14.5t-1.5 -25v-55h281z" />
    <glyph glyph-name="f" unicode="f" 
d="M129 492q0 19 13.5 33.5t47.5 14.5q6 0 17 -0.5t16 -0.5q0 60 8 84q18 55 64.5 86t106.5 31h76q4 0 12 0.5t11 0.5q29 0 41.5 -15.5t12.5 -31.5q0 -51 -66 -51q-6 0 -17 0.5t-16 0.5q-6 0 -20 0.5t-21 0.5q-77 0 -93 -54q-3 -10 -3 -52h72q32 0 41 -4q28 -12 28 -45
q0 -28 -23 -41q-12 -6 -44 -6h-74v-343q0 -5 0.5 -16.5t0.5 -17.5q0 -66 -52 -66q-46 2 -46 72q0 6 0.5 16.5t0.5 14.5v340q-5 0 -16.5 -0.5t-17.5 -0.5q-60 0 -60 50z" />
    <glyph glyph-name="g" unicode="g" 
d="M344 539q39 0 63 -9t48 -30.5t28 -24.5q0 33 11 47q13 16 37 16q30 0 42 -24q6 -10 6 -51v-402q0 -11 1 -34t1 -35q0 -87 -58 -135q-45 -39 -68.5 -48.5t-82.5 -9.5h-151q-27 0 -34 2q-15 4 -24.5 17t-9.5 29q0 48 75 48h126q5 0 17 -0.5t19 -0.5q15 0 24 2.5t15 7.5
t16 13q17 11 28 24.5t11 38.5q0 4 -0.5 12t-0.5 12v100q-4 -3 -27.5 -24t-48.5 -30.5t-65 -9.5q-80 0 -104.5 7.5t-62.5 39.5q-27 22 -39.5 36t-22 43.5t-9.5 73.5q0 14 1 31.5t1 68.5q0 62 14.5 89.5t52.5 60.5q22 19 34 27.5t35.5 15t57.5 6.5h44zM296 444q-19 0 -29 -3.5
t-27 -19.5q-29 -26 -32 -32q-6 -11 -6 -40v-119q0 -28 4 -38t26 -28q15 -14 26 -21t29 -7h44l11 -1q26 0 38.5 8.5t38.5 32.5q31 21 48.5 40t17.5 52q0 8 -1 20t-1 33q0 17 -5.5 28t-16.5 19t-27 22q-24 25 -43 39t-41 14q-29 0 -42 1h-12z" />
    <glyph glyph-name="h" unicode="h" 
d="M105 682q0 24 10.5 38t20 17t19.5 3q27 0 41 -24q6 -10 6 -46v-212l52 34q53 33 67 39q23 8 94 8l40 -3q68 -14 99 -79q8 -18 11 -49.5t3.5 -75t2.5 -63.5q7 -109 7 -189q0 -4 0.5 -12.5t0.5 -12.5q0 -32 -15.5 -43.5t-31.5 -11.5q-50 0 -50 62q0 27 -5 158.5t-5 128.5
v23.5t-1.5 26.5t-6.5 21t-17.5 17.5t-31.5 5.5t-25.5 0.5t-11.5 0.5q-12 0 -21 -3t-16 -8t-18 -12l-105 -67q-13 -8 -14.5 -11.5t-1.5 -18.5v-251q0 -3 0.5 -10t0.5 -11q0 -25 -15.5 -38.5t-33.5 -13.5q-19 0 -34 13t-15 44q0 5 0.5 14t0.5 14v563q0 6 -0.5 17t-0.5 17z" />
    <glyph glyph-name="i" unicode="i" 
d="M298 780h20h14t14 -1t13 -2.5t11.5 -5.5t10.5 -10q10 -12 10 -37v-7q0 -20 -2 -32.5t-11.5 -25t-27.5 -15.5h-30h-11q-38 0 -52 19q-10 12 -10 37v7q0 35 9.5 54t41.5 19zM216 -1q-62 0 -62 50q0 28 23 41q12 6 45 6h73v347h-70q-32 0 -40 3q-32 11 -32 46q0 19 12 31.5
t29 15.5q8 1 26 1q8 0 26 -0.5t26 -0.5t26 0.5t26 0.5q48 0 62 -28q5 -10 5 -44v-372h72q33 0 45 -6q23 -13 23 -42t-23 -42q-11 -6 -40 -6h-212q-6 0 -19.5 -0.5t-20.5 -0.5z" />
    <glyph glyph-name="j" unicode="j" 
d="M440 780h20h14t13.5 -0.5t12.5 -2.5t11.5 -6t10.5 -10q10 -12 10 -37v-7q0 -20 -2 -32.5t-11.5 -25t-27.5 -15.5h-30h-11q-37 0 -51 19q-10 12 -10 37v7q0 35 9.5 54t41.5 19zM153 -73q0 21 14.5 34.5t34.5 13.5q22 0 33 -13t13.5 -28t18.5 -28t48 -13q4 0 16 1t51 1
q26 0 42 16q12 14 12 51v481h-103q-4 0 -14 -0.5t-15 -0.5q-23 0 -36.5 10.5t-16.5 20t-3 18.5q0 48 59 48q55 0 77 0.5t48 0.5h28.5t25 -1t20 -4.5t15 -10t9.5 -17t3 -25.5q0 -4 -0.5 -12.5t-0.5 -12.5v-424q0 -11 1 -33t1 -34q0 -58 -19 -93q-42 -75 -137 -75
q-8 0 -19.5 0.5t-36.5 0.5q-56 0 -86 13q-36 16 -59.5 50.5t-23.5 64.5z" />
    <glyph glyph-name="k" unicode="k" 
d="M155 740q48 0 48 -64q0 -6 -0.5 -18.5t-0.5 -18.5v-325q10 7 20 15.5t22 19.5t19 17l174 148q29 25 49 25t33 -15t13 -35q0 -12 -5.5 -21.5t-14 -16t-18.5 -15.5l-130 -111q-30 -28 -42 -35v-1q12 -7 42 -35q7 -7 159 -136q14 -11 24.5 -19.5t17.5 -16t10.5 -15.5
t3.5 -18q0 -19 -14 -34t-33 -15q-20 0 -42 17.5t-34 31.5l-190 162q-3 3 -8 7q-9 10 -21 -2l-25 -21q-8 -6 -10 -11q-1 -3 -1 -11q0 -3 0.5 -10t0.5 -11v-77v-21q0 -30 -16 -42t-33 -12q-13 0 -26 8q-21 14 -21 60v591q0 4 -0.5 12t-0.5 12q0 32 16 44.5t34 12.5z" />
    <glyph glyph-name="l" unicode="l" 
d="M216 -1q-62 0 -62 50q0 28 23 41q12 6 45 6h73v548h-71q-32 0 -40 3q-31 13 -31 45q0 16 11.5 30.5t31.5 17.5q11 1 34 1q12 0 35 -0.5t34 -0.5q5 0 15.5 0.5t16.5 0.5q62 0 62 -61q0 -7 -1 -20t-1 -19v-545h72q33 0 45 -6q23 -13 23 -42t-23 -42q-11 -6 -40 -6h-212
q-6 0 -19.5 -0.5t-20.5 -0.5z" />
    <glyph glyph-name="m" unicode="m" 
d="M191 506q2 1 17.5 12t30 16t36.5 5q61 0 91 -45h1q36 44 93 44q68 0 99 -57q9 -17 13 -38t4 -41v-45t4 -108.5t4 -125.5q0 -11 1 -32t1 -32q0 -35 -17 -48q-14 -11 -30 -11q-17 0 -31 11t-17 28q-3 22 -3 64.5t-1 53.5q-7 145 -7 188q0 62 -4 80t-16 18q-8 -1 -19 -12
l-35 -30q-14 -12 -15 -16.5t0 -26.5v-253q0 -6 0.5 -19t0.5 -20q0 -66 -49 -66q-19 0 -33 12t-15 31q-1 11 -1 34q0 11 0.5 33.5t0.5 33.5v201q0 8 0.5 26t0.5 27q0 42 -18 44q-9 3 -26 -12q-13 -13 -27 -24.5t-19 -15.5t-8.5 -9.5t-3.5 -12.5v-262q0 -6 0.5 -19.5
t0.5 -20.5q0 -66 -48 -66q-18 0 -34 12.5t-16 42.5q0 5 0.5 13.5t0.5 12.5v277q0 15 -1 45.5t-1 46.5q0 21 0.5 30.5t4.5 26t15.5 24t29.5 7.5q16 0 29 -8.5t16 -23.5z" />
    <glyph glyph-name="n" unicode="n" 
d="M154 538q19 0 34 -12.5t15 -43.5q0 -4 -0.5 -12t-0.5 -12l52 34q53 33 67 39q23 8 94 8l40 -3q68 -14 99 -79q8 -18 11 -49.5t3.5 -75t2.5 -63.5q7 -109 7 -189q0 -4 0.5 -12.5t0.5 -12.5q0 -22 -9.5 -35.5t-18.5 -16.5t-19 -3q-31 0 -44 26q-6 13 -6 37q0 63 -4.5 150.5
t-5.5 138.5q1 14 -0.5 30t-5 29.5t-16 22.5t-34.5 9h-35q-22 0 -40 -10.5t-109 -69.5q-2 -1 -9.5 -5.5t-13.5 -8.5t-7 -8v-24v-216q0 -5 0.5 -17.5t0.5 -19.5q0 -64 -48 -64q-18 0 -32.5 12t-16.5 31q-1 12 -1 36q0 12 0.5 36.5t0.5 35.5v309q0 4 -0.5 12t-0.5 13
q0 30 16 41.5t33 11.5z" />
    <glyph glyph-name="o" unicode="o" 
d="M169 487q64 53 125 53q8 0 23 -0.5t23 -0.5t24 0.5t23 0.5q43 0 67 -10t58 -39q27 -24 37.5 -36t20.5 -40t10 -70q0 -9 -0.5 -27t-0.5 -27v-89q0 -67 -13.5 -93t-66.5 -72q-44 -38 -115 -38l-18 1h-69q-42 0 -66 9.5t-57 38.5q-38 30 -53.5 60.5t-15.5 87.5q0 9 0.5 27
t0.5 27v88q0 36 1.5 51.5t16 43t45.5 54.5zM298 444q-14 0 -21.5 -1t-13.5 -3.5t-11 -7t-13 -11.5q-10 -8 -17.5 -14.5t-12 -12.5t-6.5 -14.5t-2 -20.5q0 -4 0.5 -12t0.5 -12v-101q0 -6 -1 -22t-1 -24q0 -18 4 -29.5t8.5 -16.5t18.5 -17q12 -13 26.5 -22t41.5 -9q8 0 24 1
t23 1q6 0 20 -0.5t21 -0.5q22 0 30.5 3.5t29.5 20.5q16 11 26.5 24t10.5 37q0 4 -0.5 12t-0.5 12v101q0 6 1 22t1 24q0 18 -4 29.5t-8.5 16.5t-18.5 17q-2 2 -13 11.5t-14.5 11.5t-14.5 5t-26 3q-8 0 -24 -1t-23 -1t-21 0.5t-20 0.5z" />
    <glyph glyph-name="p" unicode="p" 
d="M344 -21q-43 0 -71 15.5t-71 58.5v-147q0 -6 0.5 -20.5t0.5 -21.5q0 -65 -49 -65q-19 0 -34 13t-15 43q0 5 0.5 14t0.5 13v580q0 6 -0.5 18.5t-0.5 18.5q0 25 10.5 39.5t20 17.5t19.5 3q18 0 30 -11q9 -8 13 -20.5t4 -17.5v-24q10 12 24.5 25t29 24t37.5 18t51 7
q27 0 50.5 -6.5t39.5 -18t32.5 -25.5t31.5 -29q41 -37 54.5 -53t20 -42.5t6.5 -80.5v-83q0 -67 -17 -98q-13 -23 -40 -47.5t-48 -39.5q-14 -11 -27 -24t-40.5 -23.5t-62.5 -10.5zM347 464q-29 0 -45 -13t-40 -41q-5 -5 -19 -17.5t-23 -22.5t-14 -20q-4 -9 -4 -43v-76
q0 -35 5 -44q5 -10 13.5 -19.5t21.5 -20.5t18 -16q8 -7 19.5 -20t18 -19.5t18.5 -11.5t27 -5q17 0 28.5 4.5t20.5 12.5t23 21q54 46 61 55.5t7 44.5v72q0 6 1 21.5t1 23.5q0 18 -5 31t-9.5 18.5t-21 18t-24.5 19.5q-24 24 -39.5 35.5t-38.5 11.5z" />
    <glyph glyph-name="q" unicode="q" 
d="M532 -201q-51 0 -51 66q0 8 1 23t1 22v154q-16 -13 -29 -23t-24.5 -18t-23 -13t-25 -7.5t-30.5 -2.5h-57q-40 0 -65 11t-55 37q-45 36 -56.5 65.5t-11.5 84.5v80q0 10 -0.5 32t-0.5 33q0 54 14 83t54 64q24 21 33.5 28t35.5 14.5t63 7.5q9 0 27.5 -0.5t27.5 -0.5
q28 0 52.5 -12t47 -31.5t23.5 -20.5q0 39 17 53q13 10 30 10q19 0 34.5 -12.5t15.5 -45.5q0 -7 -0.5 -19t-0.5 -18v-565q0 -46 -8 -58q-13 -21 -39 -21zM296 444q-19 0 -29 -3.5t-27 -19.5q-3 -2 -11 -9t-13.5 -12.5t-8.5 -11.5q-5 -11 -5 -41v-147v-21t1 -15.5t4 -13
t9 -12.5t16 -14q15 -14 26 -21t29 -7h44l11 -1q14 0 22 1.5t15.5 6t16 12.5t23.5 21q5 5 19 15t24 19.5t15 18.5q6 11 6 43v71q0 33 -4 42t-10.5 16t-19.5 17t-15 12q-24 25 -43 39t-41 14q-29 0 -42 1h-12z" />
    <glyph glyph-name="r" unicode="r" 
d="M155 539q19 0 34 -14t15 -49q0 -8 -1 -22t-1 -20q28 26 81 69q12 11 20 19t19.5 13t26.5 5q4 0 12 -0.5t11 -0.5q8 0 24.5 0.5t24.5 0.5q86 0 122 -46.5t36 -111.5q0 -60 -47 -60q-33 0 -45 28q-4 10 -4 38q0 32 -16 43.5t-48 11.5q-28 0 -37 1h-9q-13 0 -24.5 -10
t-29.5 -27l-107 -91q-4 -4 -6.5 -6t-3.5 -8t-1 -21q0 -7 0.5 -23t0.5 -23v-142q0 -5 0.5 -15t0.5 -16q0 -35 -14.5 -48.5t-33.5 -13.5q-18 0 -32.5 12.5t-16.5 30.5q-1 12 -1 37q0 12 0.5 37t0.5 38v312q0 36 5 46q14 26 44 26z" />
    <glyph glyph-name="s" unicode="s" 
d="M117 419q0 49 35.5 85t94.5 36q7 0 19 -0.5t18 -0.5h106q21 0 38.5 0.5t37.5 -2.5t36 -11q67 -34 67 -77q0 -18 -13.5 -32.5t-33.5 -14.5q-22 0 -43 21t-48 21q-5 0 -15.5 -0.5t-15.5 -0.5h-105q-4 0 -16.5 1t-19.5 1q-47 0 -47 -28q0 -15 20 -24l90 -39l131 -58
q5 -2 18.5 -8t19.5 -9t16.5 -8.5t18 -12t14.5 -13.5q38 -41 38 -99q0 -46 -28 -87.5t-86 -55.5q-21 -4 -50 -4q-10 0 -29.5 0.5t-28.5 0.5q-11 0 -33.5 -0.5t-33.5 -0.5q-70 0 -113 18q-71 32 -71 72q0 16 13.5 32t32.5 16q16 0 48 -21t67 -21q6 0 18 0.5t17 0.5
q15 0 45 -0.5t45 -0.5l45 1q18 1 32 15t14 35q0 12 -4 21t-12 15t-14 9.5t-16.5 7.5t-13.5 5l-183 81q-20 7 -48 20.5t-43 30.5q-31 35 -31 83z" />
    <glyph glyph-name="t" unicode="t" 
d="M106 491q0 49 61 49q6 0 17 -0.5t16 -0.5v88q0 36 5 46q14 26 44 26q29 0 42 -25q5 -11 5 -48v-87h129q7 0 21.5 0.5t21.5 0.5q15 0 22 -1q20 -3 31 -17.5t11 -31.5q0 -18 -14 -33t-49 -15q-7 0 -21.5 0.5t-21.5 0.5h-130v-243q0 -6 -0.5 -18.5t-0.5 -19.5q0 -66 56 -66
h67q36 0 49 12q8 7 14.5 25t17 30.5t32.5 12.5q17 0 33 -12t16 -38q0 -30 -21 -60t-49 -46q-19 -11 -44 -16t-45.5 -4.5t-42.5 0.5q-45 0 -76 7t-57 31q-21 19 -31.5 47t-12 48t-1.5 57v253q-5 0 -16.5 -0.5t-17.5 -0.5q-35 0 -47.5 15.5t-12.5 33.5z" />
    <glyph glyph-name="u" unicode="u" 
d="M531 0q-18 0 -33.5 13t-15.5 45q0 4 0.5 12t0.5 11q-3 -3 -52.5 -35t-67.5 -38q-23 -8 -93 -8l-40 3q-32 7 -58 27.5t-40 49.5q-6 12 -9 28.5t-4.5 41.5t-3 61t-2.5 86q0 10 -3 80t-3 108q0 22 10 35t19 15.5t18 2.5q28 0 42 -23q7 -13 7 -46q0 -52 4.5 -148t5.5 -134
q-1 -15 0.5 -31t5 -29.5t16.5 -22t35 -8.5h34q15 0 27 4.5t22.5 11t39 25.5t59.5 38q28 17 29.5 19.5t1.5 28.5v215q0 5 -0.5 17t-0.5 18q0 66 48 66q18 0 32.5 -12t16.5 -31q1 -12 1 -36q0 -12 -0.5 -36.5t-0.5 -35.5v-309q0 -3 0.5 -11t0.5 -12q0 -31 -15.5 -43.5
t-33.5 -12.5z" />
    <glyph glyph-name="v" unicode="v" 
d="M155 538q18 0 33 -12.5t15 -42.5q0 -8 -1.5 -22.5t-1.5 -21.5q0 -17 6 -30.5t14 -27.5l92 -210q3 -7 9 -22t11 -27t11 -22q3 9 26 61l103 235q12 25 12 38q0 7 -1.5 22t-1.5 23q0 33 15.5 46t33.5 13t32.5 -11.5t16.5 -30.5q1 -6 1 -19q0 -7 -0.5 -19t-0.5 -19
q0 -3 0.5 -11t0.5 -12q0 -15 -6 -30.5t-14 -29.5l-106 -241q-32 -78 -45.5 -96.5t-40.5 -18.5q-22 2 -36 0t-25.5 1t-17.5 4t-12 9.5t-9.5 16.5t-10.5 25q-13 28 -37 84l-67 152q-13 32 -24.5 57.5t-15.5 33.5t-6 15.5t-2 17.5q0 4 0.5 12t0.5 12q0 7 -0.5 19.5t-0.5 18.5
q0 60 50 60z" />
    <glyph glyph-name="w" unicode="w" 
d="M590 476q0 -14 -2 -25.5t-2 -40.5q0 -12 -2.5 -65.5t-2.5 -108.5q0 -31 -9 -63t-30 -98q-2 -12 -7.5 -30.5t-13.5 -27.5q-15 -17 -55 -17q-4 0 -11 -0.5t-11 -0.5q-23 0 -33.5 8.5t-25.5 33.5q-3 5 -14 21.5t-17.5 28.5t-10.5 23h-1q-4 -12 -11 -24t-17 -27t-15 -23
q-10 -22 -22 -31.5t-36 -9.5q-3 0 -11 0.5t-11 0.5q-39 0 -54 16q-6 7 -9.5 16t-7.5 23.5t-5 18.5q-8 32 -17.5 61.5t-13 41t-6 32t-2.5 52.5q0 13 -3 75t-3 102q0 7 -1.5 22t-1.5 23q0 30 15 43t34 13q32 0 45 -30q4 -10 4 -42q0 -7 2.5 -48t2.5 -89q0 -32 1.5 -54.5
t1.5 -46.5q0 -11 2 -19.5t6.5 -20.5t6.5 -21q2 -7 7 -25t9 -28q8 21 34.5 61.5t28.5 47.5v26v59q0 27 2 34q11 35 45 35q13 0 27.5 -8.5t19.5 -26.5q2 -7 2 -34v-58q0 -28 1.5 -32t15.5 -27q4 -7 14.5 -23.5t18 -29t12.5 -24.5h1q2 19 17 62t15 92q0 69 2.5 107t2.5 90
q0 18 3 35q4 17 17.5 27.5t29.5 10.5q49 0 49 -63z" />
    <glyph glyph-name="x" unicode="x" 
d="M342 200q-5 -7 -36 -44l-64 -77q-6 -8 -20.5 -27t-21.5 -27.5t-19.5 -16.5t-25.5 -8q-20 0 -34.5 14.5t-14.5 34.5q0 12 7 24.5t16 22t18 19.5l121 146q10 10 10 14q1 4 -10 15q-9 9 -110 133q-15 15 -28.5 32.5t-13.5 34.5q0 20 15 34.5t34 14.5q22 0 41 -20.5t36 -45.5
q79 -98 101 -122q7 10 35 43l63 76q16 24 36.5 46.5t42.5 22.5q19 0 34 -14.5t15 -34.5q0 -16 -12.5 -32.5t-25.5 -30.5l-114 -137q-1 -1 -3 -4q-8 -7 -7 -10q0 -5 10 -15q21 -21 121 -146q12 -11 26.5 -31t14.5 -37q0 -19 -15 -33t-34 -14q-22 0 -43 23t-41 52l-66 80
q-32 37 -37 45h-1z" />
    <glyph glyph-name="y" unicode="y" 
d="M532 539q17 0 32.5 -12.5t15.5 -42.5q0 -1 -0.5 -11t-0.5 -33q0 -41 -10 -64l-227 -515q-18 -44 -29 -52q-14 -10 -50 -10h-83q-36 0 -45 4q-29 12 -29 44q0 23 19 38q13 10 43 10h52q2 0 8.5 -0.5t10.5 -0.5q15 0 18 13q8 15 27.5 63.5t31.5 69.5q-46 0 -60 20
q-6 9 -11.5 20.5t-11 26.5t-8.5 22l-100 228q-20 42 -20 59q0 4 0.5 13t0.5 14t-0.5 15.5t-0.5 16.5q0 64 48 64q17 0 33.5 -12.5t16.5 -40.5q0 -7 -1.5 -21.5t-1.5 -22.5q0 -20 12 -47.5t21 -43.5q29 -63 53 -120.5t32 -75t11 -18.5q4 -2 15 -2t14 3t39 87l54 124
q10 21 17.5 36t11.5 28.5t4 26.5q0 7 -1 21.5t-1 21.5q0 30 16.5 43t33.5 13z" />
    <glyph glyph-name="z" unicode="z" 
d="M174 -1q-68 0 -68 51v33q0 13 3.5 22t7.5 13.5t18 18.5l318 306h-226q-5 0 -17.5 -0.5t-19.5 -0.5q-60 0 -60 50q0 30 26 42q11 5 40 5h286q4 0 14.5 0.5t16.5 0.5q66 0 66 -53v-27q0 -16 -3 -25.5t-9.5 -16l-16.5 -16.5l-318 -306h241q6 0 20.5 1t22.5 1
q36 0 49.5 -15.5t13.5 -34.5q0 -32 -28 -44q-10 -4 -41 -4h-302q-5 0 -16.5 -0.5t-17.5 -0.5z" />
    <glyph glyph-name="braceleft" unicode="{" 
d="M579 693q0 -19 -13 -34.5t-45 -15.5q-5 0 -14 0.5t-13 0.5h-103v-127q0 -7 0.5 -20.5t0.5 -20.5q0 -48 -20 -81q-1 -1 -8.5 -11t-7.5 -14q0 -2 14.5 -22.5t19.5 -52.5q2 -20 2 -31q0 -7 -0.5 -20.5t-0.5 -20.5v-127h104q5 0 14 0.5t13 0.5q33 0 45 -16.5t12 -33.5
q0 -49 -69 -49q-8 0 -23.5 1t-22.5 1q-8 0 -26.5 -0.5t-27.5 -0.5q-27 0 -39 3q-26 5 -46 24t-27 45q-3 12 -3 61v103q0 5 0.5 14t0.5 14q0 49 -42 58q-5 1 -31 1q-8 0 -24 -0.5t-25 -0.5q-16 0 -24 1q-18 1 -31 16t-13 33q0 21 15.5 34t40.5 13h63q12 0 19 0.5t18.5 3.5
t17.5 9t11 18.5t5 29.5q0 5 -0.5 15t-0.5 15v99q0 50 4 64q8 26 29 44.5t47 22.5q12 2 36 2q10 0 28 -0.5t27 -0.5q6 0 21 1t23 1q69 0 69 -49z" />
    <glyph glyph-name="bar" unicode="|" 
d="M295 418v247q0 22 2 35.5t13.5 26.5t32.5 13q18 0 32.5 -12.5t15.5 -30.5q1 -10 1 -31q0 -10 -0.5 -31t-0.5 -31v-186h-96zM295 322h96v-186q0 -10 0.5 -31t0.5 -31q0 -21 -1 -31q-1 -18 -15.5 -30.5t-32.5 -12.5q-30 0 -39 20.5t-9 54.5v247z" />
    <glyph glyph-name="braceright" unicode="}" 
d="M106 47q0 19 13 34.5t44 15.5q5 0 15 -0.5t14 -0.5h103v129q0 7 -0.5 19t-0.5 19q0 35 8.5 58.5t18 34t9.5 13.5q1 3 -8 13t-18.5 34t-9.5 60q0 7 0.5 20.5t0.5 20.5v127h-105q-4 0 -13 -0.5t-14 -0.5q-23 0 -37 10.5t-17 20t-3 19.5q0 49 69 49q9 0 24.5 -1t22.5 -1
q8 0 26.5 0.5t27.5 0.5q27 0 39 -3q26 -5 46 -24t27 -45q3 -12 3 -61v-101q0 -5 -0.5 -14t-0.5 -13q0 -62 56 -62h64q21 0 33 -2t24 -13t12 -33t-15.5 -35t-39.5 -13h-63q-16 0 -25.5 -1.5t-21.5 -7t-18 -18.5t-6 -34q0 -5 0.5 -15t0.5 -15v-99q0 -50 -4 -64
q-8 -26 -29.5 -44.5t-47.5 -22.5q-12 -2 -36 -2q-10 0 -28 0.5t-27 0.5q-6 0 -21 -1t-23 -1q-69 0 -69 49z" />
    <glyph glyph-name="asciitilde" unicode="~" 
d="M105 585q0 42 15.5 74t39.5 49t47.5 25t44.5 8q53 0 96 -42.5t43 -97.5q0 -5 -0.5 -16.5t-0.5 -17.5q0 -38 14 -53t32 -15q17 0 30.5 12.5t16.5 30.5q2 18 2 29q0 6 -1 32.5t-1 43.5q0 29 15.5 41t31.5 12q50 0 50 -71q0 -6 -0.5 -16.5t-0.5 -15.5q0 -7 0.5 -21t0.5 -21
q0 -70 -44.5 -111t-97.5 -41q-52 0 -92.5 35t-48.5 87q-1 7 -1 45q0 74 -47 74q-19 0 -34 -15.5t-15 -54.5q0 -11 2 -33t2 -33q0 -65 -51 -65q-48 0 -48 64q0 7 0.5 20t0.5 19t-0.5 19t-0.5 20z" />
    <glyph glyph-name="guillemotleft" unicode="&#xab;" 
d="M154 337q49 0 49 -62q0 -7 -0.5 -20t-0.5 -19v-140h93v644h284v-228q0 -6 1 -21t1 -23q0 -65 -49 -65q-50 0 -50 63q0 7 0.5 20.5t0.5 19.5v138h-92v-644h-285v228q0 6 -1 21t-1 23q0 65 50 65z" />
    <glyph glyph-name="sfthyphen" unicode="&#xad;" 
d="M82 764h521v-788h-521v788z" />
    <glyph glyph-name="guillemotright" unicode="&#xbb;" 
d="M532 740q49 0 49 -69q0 -8 -1 -24t-1 -23v-302h-188v-186q0 -10 0.5 -31t0.5 -31q0 -21 -1 -31q-1 -18 -15.5 -30.5t-32.5 -12.5q-30 0 -39 20.5t-9 54.5v247h-189v301q0 7 -1 23t-1 25q0 69 50 69q17 0 31 -11.5t17 -29.5q2 -20 2 -31t-1 -31.5t-1 -30.5v-188h281v187
q0 10 -1 30.5t-1 31.5t2 31q3 18 17 30t32 12z" />
    <glyph glyph-name="dotlessi" unicode="&#x131;" 
d="M154 0q-20 0 -33.5 13.5t-13.5 32.5q0 15 19 67t71 190t104 287l37 101q6 16 12 26t12.5 14.5t14.5 6.5t18 2h22h91q37 0 49 -7q22 -15 22 -40q0 -18 -11.5 -32t-30.5 -17q-22 -2 -33 -2t-33.5 1t-32.5 1v-226h72q31 0 43 -5q26 -14 26 -43q0 -30 -25 -42q-11 -6 -43 -6
h-73v-226h71q36 0 47 -7q23 -14 23 -41q0 -23 -18 -38q-13 -10 -51 -10h-100q-43 0 -58 18q-10 13 -10 49v94h-96q-3 -18 -17 -52.5t-15 -37.5q-5 -13 -9 -28.5t-17.5 -29t-33.5 -13.5zM342 421q-5 -8 -9.5 -19.5t-8.5 -25.5t-7 -21q-2 -7 -16 -43t-19 -55h60v164z" />
    <glyph glyph-name="endash" unicode="&#x2013;" 
d="M154 0q-50 0 -50 69q0 9 1 25t1 23v301h377v251q0 29 1 34q9 36 46 36q19 0 34.5 -13t15.5 -47q0 -6 -0.5 -17t-0.5 -16v-576q0 -45 -18 -60q-13 -10 -29 -10q-18 0 -32.5 12t-16.5 30q-2 20 -2 31t1 31.5t1 30.5v187h-281v-188q0 -10 1 -30.5t1 -31.5t-2 -31
q-3 -18 -17 -29.5t-31 -11.5z" />
    <glyph glyph-name="emdash" unicode="&#x2014;" 
d="M295 1048h96v-1144h-96v1144z" />
    <glyph glyph-name="quoteleft" unicode="&#x2018;" 
d="M532 450q0 -18 -13 -32.5t-34 -14.5t-46 20t-38 35l-211 180q-10 9 -18 15.5t-13.5 16t-5.5 21.5q0 17 11.5 31.5t29.5 17.5q16 2 26 2t22 -1t48 -1q27 0 42.5 -16.5t33.5 -43.5l144 -184q22 -29 22 -46z" />
    <glyph glyph-name="quoteright" unicode="&#x2019;" 
d="M247 651q0 13 -0.5 25.5t2.5 24t8 20.5t16.5 14.5t28.5 5.5q4 0 13 -0.5t14 -0.5q6 0 19.5 0.5t20.5 0.5q69 0 69 -48q0 -9 -13 -51l-49 -166l-38 -128q-13 -26 -42 -26q-18 0 -33 13t-16 31q-1 10 -1 32q0 10 0.5 31t0.5 32v190z" />
    <glyph glyph-name="quotedblleft" unicode="&#x201c;" 
d="M297 60q0 -25 -11 -39.5t-21 -17.5t-19 -3q-17 0 -29 11q-17 15 -17 57v191q0 32 1.5 41.5t9 19.5t23.5 21l230 196q8 6 12.5 10t6 9t1.5 17q0 13 -3.5 17.5t-12.5 11.5l-32 27q-5 -7 -26 -23q-7 -5 -198 -170q-41 -34 -61 -34q-17 0 -31 14t-14 35q0 18 14 33.5t20 17.5
l224 191q12 13 33.5 30t40.5 17q18 0 41 -21l46 -39q25 -18 40 -33.5t15 -45.5q0 -5 -0.5 -15.5t-0.5 -14.5t0.5 -14t0.5 -15q0 -17 -5 -28.5t-8 -14.5t-17 -15l-189 -162q-21 -17 -31 -25.5t-19 -15.5t-11 -11.5t-3.5 -5.5t-1 -7t0.5 -8v-156q0 -5 0.5 -16t0.5 -17z" />
    <glyph glyph-name="quotedblright" unicode="&#x201d;" 
d="M247 693q0 16 13 32t42 16q4 0 13 -0.5t14 -0.5q6 0 20 0.5t22 0.5q66 0 66 -48q0 -9 -5 -36l-20 -104q-5 -24 -13.5 -69t-11.5 -52q-12 -29 -42 -29q-15 0 -25 5.5t-16 15t-11.5 32t-9.5 45t-12 66t-17 84.5q-1 4 -4 20t-3 22z" />
    <glyph glyph-name="quotedblbase" unicode="&#x201e;" 
d="M106 369q0 19 13.5 34.5t47.5 15.5q7 0 20 -0.5t19 -0.5h260q8 0 24 0.5t23 0.5q16 0 24 -1q19 -2 30.5 -17t11.5 -32q0 -29 -26 -42q-11 -5 -41 -5h-339q-28 0 -36 3q-31 12 -31 44z" />
    <glyph glyph-name="perthousand" unicode="&#x2030;" 
d="M105 685q0 47 42 55q27 0 41.5 -13t14.5 -55l-1 -11v-43q0 -33 -18.5 -45.5t-39.5 -8.5q-39 8 -39 68q0 5 0.5 15t0.5 14t-0.5 12t-0.5 12zM482 685q0 47 42 55q27 0 41.5 -13t14.5 -55v-11q-1 -11 -1 -43q0 -33 -18.5 -45.5t-39.5 -8.5q-39 8 -39 68q0 5 0.5 15t0.5 14
t-0.5 12t-0.5 12zM154 0q-20 0 -34 14t-14 32q0 9 5.5 24.5t15.5 40t15 38.5q23 63 68.5 176.5t58.5 148.5l21 55q19 50 52 50q18 0 30.5 -10.5t15.5 -21.5t7 -18l161 -412q6 -13 14 -35t8 -36q0 -21 -13.5 -33.5t-34.5 -12.5q-24 0 -40.5 27t-25.5 58t-13 34q-3 2 -14 2
h-190q-10 0 -13 -2q-3 -3 -7 -15l-4 -12l-18 -47q0 -3 -3.5 -10.5t-8.5 -15t-15 -13.5t-24 -6zM343 399l-71 -182h141z" />
    <glyph glyph-name="guilsinglleft" unicode="&#x2039;" 
d="M462 55q0 -56 -61 -56q-5 0 -14 0.5t-13 0.5h-93q-34 0 -48 20q-9 12 -9 49v90q0 39 3 47q12 32 53 32q5 0 15 -0.5t15 -0.5h89q38 0 52 -19q10 -13 10 -59v-81q0 -4 0.5 -12t0.5 -11z" />
    <glyph glyph-name="guilsinglright" unicode="&#x203a;" 
d="M407 0q-34 0 -50 12t-16 46q0 5 0.5 14t0.5 13v116h-72q-33 0 -42 4q-28 12 -28 63q0 42 15 57q13 13 50 13h156q35 0 47 -11q10 -9 14 -21.5t3.5 -24.5t-0.5 -26v-167q0 -4 0.5 -14t0.5 -14q0 -21 -5.5 -34t-16 -18t-19 -6.5t-21.5 -1.5h-17z" />
    <glyph glyph-name="dotlessj" unicode="&#xf6be;" 
d="M579 673q0 -21 -1.5 -32.5t-13.5 -24t-35 -12.5q-3 0 -74.5 7.5t-94.5 10.5q-9 1 -69 6t-91 11q-3 -17 -15.5 -26t-29.5 -9q-49 0 -49 58v25q0 53 55 53q4 0 9 -0.5t23 -3t46 -5.5t90 -10t144 -15h11q2 1 5 10q15 24 41 24q14 0 24 -6q25 -12 25 -61zM580 68
q0 -68 -50 -68q-22 0 -51 33l-42 45l-235 250v-230q0 -5 0.5 -17.5t0.5 -18.5q0 -36 -15.5 -49t-33.5 -13q-33 0 -45 31q-3 8 -3 41v322q0 5 -0.5 17t-0.5 19q0 69 48 69q10 0 17 -3t16.5 -11t22.5 -22.5t35 -37.5q29 -30 111 -119t128 -136v230q0 5 -0.5 17.5t-0.5 18.5
q0 36 15.5 49t33.5 13q33 0 45 -30q3 -8 3 -41v-324q0 -5 0.5 -17t0.5 -18z" />
    <glyph glyph-name="cwm" 
d="M154 0q-19 0 -33 13.5t-14 32.5q0 10 6 32l84 287q24 96 35 120q-37 1 -58 34t-21 72q0 7 -0.5 20t-0.5 19q0 58 30 83.5t62 26.5q17 1 51 1l102 -1q29 0 40 -0.5t31.5 -7t34.5 -19.5q29 -27 29 -95q0 -5 0.5 -15.5t0.5 -16.5q0 -48 -26.5 -73.5t-53.5 -27.5
q9 -22 21.5 -68.5t14.5 -52.5l75 -257q14 -53 14 -59q0 -18 -12 -33t-39 -15q-24 1 -36.5 26t-39.5 124q-1 5 -2.5 7.5t-6 4t-13.5 1.5q-6 0 -17 -1t-16 -1h-145h-4q-6 0 -8 -1.5t-5 -10.5v-1q-7 -20 -8 -26l-19 -64q-12 -58 -53 -58zM436 644h-187v-65h187v65zM354 483h-23
l-66 -226h155z" />
  </font>
</defs>
</svg>
