<?xml version="1.0" encoding="UTF-8" standalone="no"?>
<svg
   xmlns:dc="http://purl.org/dc/elements/1.1/"
   xmlns:cc="http://creativecommons.org/ns#"
   xmlns:rdf="http://www.w3.org/1999/02/22-rdf-syntax-ns#"
   xmlns:svg="http://www.w3.org/2000/svg"
   xmlns="http://www.w3.org/2000/svg"
   xmlns:sodipodi="http://sodipodi.sourceforge.net/DTD/sodipodi-0.dtd"
   xmlns:inkscape="http://www.inkscape.org/namespaces/inkscape"
   sodipodi:docname="logo-dark.svg"
   height="150"
   width="200"
   inkscape:version="1.0.1 (3bc2e813f5, 2020-09-07)"
   version="1.1"
   id="svg2985">
  <path
     id="rect3056"
     style="display:inline;fill:#000000;fill-opacity:1;fill-rule:evenodd;stroke-width:0.753256"
     d="m 116.38281,13.863281 c -0.275,0 -1.05945,0.675 -1.74414,1.5 -0.68469,0.825 -1.02109,1.5 -0.74609,1.5 0.275,0 1.0614,-0.675 1.74609,-1.5 0.68469,-0.825 1.01914,-1.5 0.74414,-1.5 z m -26.433591,0.900391 c -0.56427,0.03194 -2.301468,1.303709 -4.191407,3.101562 -4.15715,3.95461 -6.799317,4.715102 -24.023437,6.925782 -10.21276,1.31079 -11.079336,3.098029 -6.097656,12.568359 1.64905,3.13491 2.702083,6.218113 2.339843,6.851563 -0.362229,0.63345 -0.284851,0.812814 0.173829,0.396484 0.45868,-0.41633 2.164052,2.012657 3.789062,5.398437 l 2.955078,6.15625 -2.253906,1.699219 c -1.23937,0.93486 -3.208323,1.582946 -4.376953,1.441406 -1.97129,-0.23877 -15.906501,-7.085175 -23.363281,-11.478515 -3.76999,-2.22117 -6.04073,-1.675042 -7.34961,1.767578 l -0.933593,2.457031 -3.490235,-2.058594 c -4.3139,-2.54527 -4.555909,-1.201613 -0.412109,2.285157 3.54892,2.98623 6.66847,3.317727 8.4375,0.898437 1.13036,-1.54586 1.947448,-1.327346 9.611328,2.558594 4.60634,2.33563 9.442084,5.049583 10.746094,6.033203 l 2.371093,1.789063 -3.091797,2.201171 c -1.700569,1.21091 -5.189123,4.870743 -7.751953,8.132813 -2.56283,3.26207 -4.980846,5.732634 -5.373047,5.490234 -0.3922,-0.24239 -6.74562,-0.911511 -14.11914,-1.488281 -7.37351,-0.57677 -14.7562501,-1.289171 -16.4062501,-1.582031 -2.08156,-0.36944 -2.54078,-0.250015 -1.5,0.390625 0.825,0.50782 4.4250001,1.250417 8.0000001,1.648437 3.575,0.39803 7.4,0.874397 8.5,1.060547 14.46524,2.44793 16.49174,3.160794 16.34375,5.740235 -0.0699,1.218389 0.197863,3.406338 0.595703,4.861328 0.6403,2.34174 0.204859,3.001862 -3.800781,5.757812 -6.42679,4.421752 -21.55465,11.794812 -27.0312502,13.173832 -4.78691,1.20536 -7.1130888,2.93294 -3.9179688,2.91015 2.42911,-0.0173 12.779952,-3.30488 18.326172,-5.82031 9.46594,-4.29318 21.984375,-9.052032 21.984375,-8.357422 0,2.32301 -12.67925,15.189802 -16.25,16.490232 -0.9625,0.35053 -1.75,1.35185 -1.75,2.22656 0,0.87472 -0.374418,1.35974 -0.830078,1.07813 -1.00116,-0.61875 -0.899638,5.9988 0.107422,7.00586 0.39,0.38999 2.452181,0.18695 4.582031,-0.45117 6.33605,-1.89833 6.445171,-1.43925 1.175781,4.89258 -2.77005,3.32855 -5.035156,6.23957 -5.035156,6.46875 0,1.26072 3.13873,-1.46459 8,-6.94532 3.025,-3.41047 5.990454,-6.04067 6.589844,-5.84375 0.59938,0.19692 1.665633,-0.33747 2.371093,-1.1875 1.02504,-1.2351 1.033893,-1.84619 0.03906,-3.04492 -0.68469,-0.825 -1.921094,-1.5 -2.746094,-1.5 -1.25946,0 -1.286881,-0.25495 -0.175781,-1.59375 1.67024,-2.01251 10.963125,-7.38397 12.796875,-7.39648 0.75696,-0.005 3.985788,-1.33503 7.173828,-2.95508 4.33379,-2.20227 6.028034,-2.64386 6.714844,-1.75 1.41823,1.84579 10.745906,17.62717 13.566406,22.95312 2.13368,4.02904 4.627343,10.19788 5.251953,12.99219 0.0922,0.4125 0.224219,0.975 0.292969,1.25 0.27667,1.10669 2.125,0.41201 2.125,-0.79883 0,-0.715 -0.427579,-1.7275 -0.949219,-2.25 -0.52164,-0.5225 -1.612701,-3.50552 -2.425781,-6.6289 -0.81308,-3.12338 -1.978251,-6.61088 -2.587891,-7.75 -0.60964,-1.13912 -0.780339,-2.07227 -0.380859,-2.07227 0.39947,0 -0.05896,-0.57249 -1.017578,-1.27344 -1.69872,-1.24213 -2.534312,-2.5066 -9.488282,-14.3457 l -3.349609,-5.703124 5.724609,-5.414063 c 5.58031,-5.27717 5.709515,-5.521365 5.140626,-9.671875 -0.48995,-3.57459 -0.308831,-4.259658 1.125,-4.267578 0.939409,-0.005 2.434112,0.816462 3.320312,1.826172 1.88347,2.14595 7.934989,4.849609 10.855469,4.849609 1.11767,0 2.033203,0.465807 2.033203,1.035157 0,0.686949 0.702744,0.658385 2.089844,-0.08398 1.454997,-0.77869 7.001397,-0.906935 18.250007,-0.421875 23.07444,0.995 41.65638,1.093763 41.6582,0.220703 8.6e-4,-0.4125 -3.03555,-0.779133 -6.74805,-0.814453 -3.7125,-0.0353 -9.36565,-0.615956 -12.5625,-1.291016 -3.36247,-0.71004 -11.83878,-1.145333 -20.10742,-1.033203 -18.14712,0.2461 -25.827061,-1.414813 -33.080081,-7.152343 -1.89008,-1.49516 -1.904397,-1.653913 -0.248047,-2.882813 0.96397,-0.7152 2.929078,-1.171532 4.367187,-1.013672 2.86858,0.31489 8.29216,-4.379362 6.40625,-5.544922 -0.564409,-0.34882 -1.09569,-2.429496 -1.18164,-4.623047 -0.28861,-7.365389 4.377764,-11.359902 15.923831,-13.632812 6.32017,-1.24416 38.49092,-1.990453 37.80273,-0.876953 -0.23728,0.38393 1.11358,0.517105 3,0.296875 5.18102,-0.60486 4.13712,-1.655221 -2.82031,-2.837891 -4.23386,-0.7197 -10.12098,-0.756634 -18.25,-0.115234 -6.6,0.52075 -14.76634,1.020015 -18.14648,1.109375 -3.38014,0.0894 -5.96195,0.466944 -5.73633,0.839844 0.22563,0.3729 -0.60803,0.987191 -1.85352,1.363281 -1.24549,0.37609 -4.45066,2.008626 -7.123046,3.628906 -2.6724,1.62028 -4.996806,2.807942 -5.166016,2.638672 -0.16921,-0.16927 0.735129,-2.558594 2.011719,-5.308594 1.27659,-2.75 3.011306,-6.581895 3.853516,-8.515625 0.84222,-1.93373 2.707057,-5.248937 4.144537,-7.367187 1.43749,-2.11825 2.4197,-4.047097 2.18164,-4.285157 -0.42483,-0.424839 -4.8088,6.454434 -7.625005,11.964844 -0.786061,1.53806 -2.95145,4.57579 -4.8125,6.75 -2.637281,3.08107 -3.884188,3.827566 -5.648438,3.384766 -1.24497,-0.31247 -5.147015,0.178247 -8.671875,1.091797 l -6.408203,1.662109 -3,-3.480469 c -3.33744,-3.87211 -11.520243,-19.33787 -11.507813,-21.75 0.006,-1.08214 1.132293,-1.606093 3.757813,-1.746093 3.23492,-0.1725 11.24642,-1.362006 19,-2.822266 1.2375,-0.23306 2.25,-0.88089 2.25,-1.4375 0,-0.55662 1.779658,-2.648248 3.955078,-4.648438 2.17543,-2.00018 3.761167,-3.951287 3.523438,-4.335937 -0.02971,-0.04808 -0.08736,-0.06902 -0.167969,-0.06445 z m 19.888671,8.65039 c -0.10627,0.02647 -0.29243,0.147861 -0.5625,0.367188 -1.63978,1.3317 -4.12074,5.082031 -3.36133,5.082031 0.19092,0 1.41801,-1.4625 2.72656,-3.25 1.10419,-1.508332 1.51608,-2.278624 1.19727,-2.199219 z M 15.578125,44.863281 c -0.51754,0 -0.939453,0.45 -0.939453,1 0,0.55 0.701134,1 1.558594,1 0.85746,0 1.281326,-0.45 0.941406,-1 -0.33992,-0.55 -1.043007,-1 -1.560547,-1 z m 144.119145,2 c -1.06754,0 -2.21868,0.45 -2.5586,1 -0.35052,0.56715 0.4881,1 1.93945,1 1.40746,0 2.56055,-0.45 2.56055,-1 0,-0.55 -0.87386,-1 -1.9414,-1 z m 8.28125,1.326172 c -0.97016,-0.06576 -1.26813,0.134555 -0.8086,0.583985 0.53281,0.521099 2.54375,1.092821 4.46875,1.269531 8.45508,0.77617 10.31844,0.804767 9.66797,0.154297 -0.381,-0.381 -2.60101,-0.836832 -4.93164,-1.013672 -2.33062,-0.17684 -5.57227,-0.554914 -7.20508,-0.839844 -0.46942,-0.08192 -0.86802,-0.132377 -1.1914,-0.154297 z m -62.06641,10.804688 c -0.40883,-0.043 -0.92875,0.29162 -1.3125,0.898437 -1.53967,2.43457 -1.07888,3.516364 0.72851,1.708984 0.92977,-0.92976 1.35499,-2.025886 0.94532,-2.435546 -0.10242,-0.102418 -0.22506,-0.157542 -0.36133,-0.171875 z m -4.08789,3.955078 c -0.99726,0.04446 -3.185548,2.090437 -3.185548,3.191406 0,0.5679 0.902495,0.215337 2.005858,-0.783203 1.10337,-0.99854 1.78852,-2.031795 1.52344,-2.296875 -0.084,-0.08399 -0.20129,-0.117679 -0.34375,-0.111328 z m 58.89648,25.037109 c -0.34739,0.01432 -0.64635,0.107268 -0.8125,0.273438 -0.33229,0.33229 0.25834,0.56881 1.3125,0.52539 1.16495,-0.048 1.4032,-0.286239 0.60547,-0.605468 -0.36094,-0.144436 -0.75807,-0.207676 -1.10547,-0.19336 z m 6.37305,0.07227 c -2.26921,0.0853 -3.07861,0.427475 -2.25,0.953125 1.79684,1.13989 5.79492,1.059272 5.79492,-0.117188 0,-0.53325 -1.59563,-0.909217 -3.54492,-0.835937 z"/>
</svg>
